<?xml version="1.0" standalone="no"?>
<!DOCTYPE svg PUBLIC "-//W3C//DTD SVG 1.1//EN" "http://www.w3.org/Graphics/SVG/1.1/DTD/svg11.dtd" >
<svg xmlns="http://www.w3.org/2000/svg">
<metadata>Generated by IcoMoon</metadata>
<defs>
<font id="icomoon" horiz-adv-x="1024">
<font-face units-per-em="1024" ascent="960" descent="-64" />
<missing-glyph horiz-adv-x="1024" />
<glyph unicode="&#x20;" horiz-adv-x="512" d="" />
<glyph unicode="&#xe900;" glyph-name="sfdc-icon-1oclock" horiz-adv-x="1023" d="M511.467 962.205c-282.373 0-511.467-229.095-511.467-511.467s229.095-511.467 511.467-511.467c282.373 0 511.467 229.095 511.467 511.467s-229.095 511.467-511.467 511.467zM758.676 660.652l-193.931-291.607c-12.076-18.114-32.322-28.77-53.278-28.77-6.038 0-12.431 0.71-18.47 2.841-26.994 8.169-45.464 33.032-45.464 61.447v412.015c0 35.519 28.77 64.289 64.289 64.289s64.289-28.77 64.289-64.289v-199.614l76.010 114.725c19.535 29.48 59.671 37.65 88.796 17.759 29.48-19.535 37.65-59.316 17.759-88.796z" />
<glyph unicode="&#xe901;" glyph-name="sfdc-icon-5oclock" horiz-adv-x="1023" d="M511.467 962.205c-282.373 0-511.467-229.095-511.467-511.467s229.095-511.467 511.467-511.467c282.373 0 511.467 229.095 511.467 511.467s-229.095 511.467-511.467 511.467zM724.223 112.956c-11.366-8.169-24.508-12.431-37.65-12.431-19.89 0-39.426 9.235-51.857 26.284l-175.106 240.105c-7.814 11.011-12.431 24.153-12.431 37.65v412.015c0 35.519 28.77 64.289 64.289 64.289s64.289-28.77 64.289-64.289v-391.059l162.675-223.057c20.601-28.77 14.563-68.906-14.207-89.507z" />
<glyph unicode="&#xe902;" glyph-name="sfdc-icon-8oclock" horiz-adv-x="1023" d="M511.467 962.205c-282.373 0-511.467-229.095-511.467-511.467s229.095-511.467 511.467-511.467 511.467 229.095 511.467 511.467-229.095 511.467-511.467 511.467zM575.756 404.563c0-22.732-12.076-44.043-31.967-55.409l-267.455-156.282c-10.3-6.038-21.311-8.88-32.322-8.88-22.022 0-43.688 11.366-55.409 31.967-17.759 30.546-7.459 69.972 23.087 87.731l235.843 137.457v375.431c0 35.519 28.77 64.289 64.289 64.289s64.289-28.77 64.289-64.289v-412.015z" />
<glyph unicode="&#xe903;" glyph-name="sfdc-icon-alarm" horiz-adv-x="1023" d="M511.467 962.205c-282.373 0-511.467-229.095-511.467-511.467s229.095-511.467 511.467-511.467 511.467 229.095 511.467 511.467-229.095 511.467-511.467 511.467zM511.467 723.52c48.66 0 63.933-33.743 62.513-34.453s-9.235 12.787-62.513 12.787-61.092-13.497-62.513-12.787c-1.421 0.71 13.852 34.453 62.513 34.453zM511.112 177.6c-42.622 0-77.786 26.284-83.824 61.092h168.003c-6.393-34.453-41.557-61.092-84.179-61.092zM783.895 253.965c-1.776-4.262-7.814-4.262-7.814-4.262h-529.227c0 0-5.683 0-7.814 4.262-2.131 4.617 1.776 9.59 1.776 9.59l116.501 154.506c0 0 0 59.671 0 158.058 0 103.359 126.091 104.425 154.151 104.425s154.151-1.066 154.151-104.425c0-98.386 0-158.058 0-158.058l116.501-154.506c0 0 3.907-4.617 1.776-9.59z" />
<glyph unicode="&#xe904;" glyph-name="sfdc-icon-calendar" horiz-adv-x="1023" d="M818.348 762.946v199.259h-136.391v-199.259h-340.978v199.259h-136.391v-199.259h-136.391v-823.675h886.543v823.675h-136.391zM818.348 75.662h-613.761v414.502h613.761v-414.502z" />
<glyph unicode="&#xe905;" glyph-name="sfdc-icon-closed-captioning" horiz-adv-x="1023" d="M947.99 804.858h-873.046c-41.202 0-74.944-33.743-74.944-74.944v-558.352c0-41.202 33.743-74.944 74.944-74.944h873.046c41.202 0 74.944 33.743 74.944 74.944v558.352c0 41.202-33.743 74.944-74.944 74.944zM422.316 287.352c-21.311-8.88-44.398-13.142-69.616-13.142-35.519 0-66.065 7.459-91.283 22.377s-44.398 35.874-57.185 62.157c-12.787 26.639-19.18 57.185-19.18 91.993 0 35.163 6.393 66.065 19.535 92.703 13.142 26.284 32.322 46.884 57.54 61.802 25.218 14.563 55.764 22.022 91.283 22.022 23.442 0 45.464-3.907 66.065-11.366s38.005-18.114 51.502-31.256l-34.808-39.781c-10.656 9.235-23.087 16.339-36.939 21.311s-28.415 7.459-43.333 7.459c-36.584 0-63.578-11.011-80.627-33.387-17.404-22.022-25.929-51.857-25.929-89.507 0-36.939 8.524-66.42 25.929-88.441s43.688-33.387 79.206-33.387c16.694 0 31.967 3.197 46.174 9.235s26.639 14.207 37.294 24.153l37.294-40.491c-13.852-13.852-31.612-25.573-52.923-34.453zM784.605 287.352c-21.311-8.88-44.398-13.142-69.616-13.142-35.519 0-66.065 7.459-91.283 22.377s-44.398 35.874-57.185 62.157c-12.787 26.639-19.18 57.185-19.18 91.993 0 35.163 6.393 66.065 19.535 92.703 13.142 26.284 32.322 46.884 57.54 61.802 25.218 14.563 55.764 22.022 91.283 22.022 23.442 0 45.464-3.907 66.065-11.366s38.005-18.114 51.502-31.256l-34.808-39.781c-10.656 9.235-23.087 16.339-36.939 21.311s-28.415 7.459-43.333 7.459c-36.584 0-63.578-11.011-80.627-33.387-17.404-22.022-25.929-51.857-25.929-89.507 0-36.939 8.524-66.42 25.929-88.441s43.688-33.387 79.206-33.387c16.694 0 31.967 3.197 46.174 9.235s26.639 14.207 37.294 24.153l37.294-40.491c-13.852-13.852-31.612-25.573-52.923-34.453z" />
<glyph unicode="&#xe906;" glyph-name="sfdc-icon-comments" horiz-adv-x="1023" d="M892.226 962.205h-761.518c-52.567 0-95.545-42.977-95.545-95.545v-595.646c0-52.567 42.977-95.545 95.545-95.545h636.137l220.925-236.198v927.39c0 52.567-42.977 95.545-95.545 95.545zM791.709 298.718h-569.362c-35.163 0-63.933 28.77-63.933 63.933s28.77 63.933 63.933 63.933h569.362c35.163 0 63.933-28.77 63.933-63.933s-28.77-63.933-63.933-63.933zM800.588 504.726h-569.362c-35.163 0-63.933 28.77-63.933 63.933s28.77 63.933 63.933 63.933h569.362c35.163 0 63.933-28.77 63.933-63.933s-28.77-63.933-63.933-63.933zM800.588 711.089h-569.362c-35.163 0-63.933 28.77-63.933 63.933s28.77 63.933 63.933 63.933h569.362c35.163 0 63.933-28.77 63.933-63.933s-28.77-63.933-63.933-63.933z" />
<glyph unicode="&#xe907;" glyph-name="sfdc-icon-down-arrow" horiz-adv-x="1023" d="M965.75 726.717l-445.403-445.403c-4.973-4.973-12.787-4.973-17.759 0l-445.403 445.403c-4.973 4.973-12.787 4.973-17.759 0l-35.519-35.519c-4.973-4.973-4.973-12.787 0-17.759l499.036-499.036c4.973-4.973 12.787-4.973 17.759 0l498.681 499.036c4.973 4.973 4.973 12.787 0 17.759l-35.519 35.519c-4.973 4.973-13.142 4.973-18.114 0z" />
<glyph unicode="&#xe908;" glyph-name="sfdc-icon-fullscreen-enter" d="M0 962.56v-426.656l186.176 186.176 186.176-186.176 62.048 62.048-186.176 186.176 186.176 186.176h-434.432zM1016.256 962.56v-426.656l-186.176 186.176-186.176-186.176-62.048 62.048 186.176 186.176-186.176 186.176h434.432zM0-61.44v426.656l186.176-186.176 186.176 186.176 62.048-62.048-186.176-186.176 186.176-186.176h-434.432zM1016.256-61.44v426.656l-186.176-186.176-186.176 186.176-62.048-62.048 186.176-186.176-186.176-186.176h434.432z" />
<glyph unicode="&#xe909;" glyph-name="sfdc-icon-fullscreen-exit" d="M529.036 409.879v-455.804l195.336 195.336 195.336-195.336 65.102 65.102-195.336 195.336 195.336 195.336h-455.804zM455.804 409.879v-455.804l-195.336 195.336-195.336-195.336-65.102 65.102 195.336 195.336-195.336 195.336h455.804zM529.036 491.241v455.804l195.336-195.336 195.336 195.336 65.102-65.102-195.336-195.336 195.336-195.336h-455.804zM455.804 491.241v455.804l-195.336-195.336-195.336 195.336-65.102-65.102 195.336-195.336-195.336-195.336h455.804z" />
<glyph unicode="&#xe90a;" glyph-name="sfdc-icon-fullscreen" horiz-adv-x="1023" d="M220.215 833.272h77.43c35.519 0 64.644 28.77 64.644 64.644s-29.125 64.289-64.644 64.289h-233.002c-35.874 0-64.644-29.125-64.644-64.644v-233.002c0-35.519 28.77-64.644 64.644-64.644s64.644 28.77 64.644 64.644v77.43l236.198-236.198c12.431-12.431 29.125-18.825 45.464-18.825s33.032 6.393 45.464 18.825c25.218 25.218 25.218 66.065 0 91.283l-236.198 236.198zM958.291 301.204c-35.519 0-64.644-28.77-64.644-64.644v-77.43l-236.198 236.198c-25.218 25.218-66.065 25.218-91.283 0s-25.218-66.065 0-91.283l236.198-236.198h-77.43c-35.519 0-64.644-28.77-64.644-64.644 0-35.519 28.77-64.644 64.644-64.644h233.002c35.519 0 64.644 28.77 64.644 64.644v233.002c0.355 36.229-28.415 64.999-64.289 64.999z" />
<glyph unicode="&#xe90b;" glyph-name="sfdc-icon-globe" horiz-adv-x="1023" d="M512 962.56c-281.6 0-512-230.4-512-512s230.4-512 512-512 512 230.4 512 512-230.4 512-512 512zM916.48 501.76h-133.12c-5.12 122.88-30.72 225.28-71.68 307.2 112.64-61.44 189.44-179.2 204.8-307.2zM460.8 839.68v-337.92h-117.76c10.24 158.72 61.44 286.72 117.76 337.92zM460.8 399.36v-337.92c-56.32 51.2-107.52 174.080-117.76 337.92h117.76zM563.2 61.44v337.92h117.76c-10.24-158.72-61.44-286.72-117.76-337.92zM563.2 501.76v337.92c56.32-51.2 107.52-174.080 117.76-337.92h-117.76zM312.32 808.96c-40.96-81.92-66.56-184.32-71.68-307.2h-133.12c15.36 128 92.16 245.76 204.8 307.2zM107.52 399.36h133.12c5.12-122.88 30.72-225.28 71.68-307.2-112.64 61.44-189.44 179.2-204.8 307.2zM711.68 92.16c40.96 81.92 66.56 184.32 71.68 307.2h133.12c-15.36-128-92.16-245.76-204.8-307.2z" />
<glyph unicode="&#xe90c;" glyph-name="sfdc-icon-grid" horiz-adv-x="1023" d="M331.033 503.66h-203.166c-70.327 0-127.867 57.54-127.867 127.867v203.166c0 70.327 57.54 127.867 127.867 127.867h203.166c70.327 0 127.867-57.54 127.867-127.867v-203.166c0-70.327-57.54-127.867-127.867-127.867zM895.423 503.66h-203.166c-70.327 0-127.867 57.54-127.867 127.867v203.166c0 70.327 57.54 127.867 127.867 127.867h203.166c70.327 0 127.867-57.54 127.867-127.867v-203.166c0-70.327-57.54-127.867-127.867-127.867zM331.033-61.085h-203.166c-70.327 0-127.867 57.54-127.867 127.867v203.166c0 70.327 57.54 127.867 127.867 127.867h203.166c70.327 0 127.867-57.54 127.867-127.867v-203.166c0-70.327-57.54-127.867-127.867-127.867zM895.423-61.085h-203.166c-70.327 0-127.867 57.54-127.867 127.867v203.166c0 70.327 57.54 127.867 127.867 127.867h203.166c70.327 0 127.867-57.54 127.867-127.867v-203.166c0-70.327-57.54-127.867-127.867-127.867z" />
<glyph unicode="&#xe90d;" glyph-name="sfdc-icon-hamburger" horiz-adv-x="1023" d="M0 860.622h1022.934v-189.314h-1022.934v189.314zM0 545.217h1022.934v-189.314h-1022.934v189.314zM0 229.812h1022.934v-189.314h-1022.934v189.314z" />
<glyph unicode="&#xe90e;" glyph-name="sfdc-icon-hd" horiz-adv-x="1023" d="M222.701 727.782l-40.136-217.018h199.969l40.136 217.018h120.053l-103.004-554.445h-120.053l45.819 234.422h-199.969l-45.819-234.422h-119.698l103.004 554.445c0 0 119.698 0 119.698 0zM588.542 722.099c45.819 5.683 97.321 11.366 154.151 11.366 85.6 0 154.151-17.049 205.652-62.868 45.819-40.136 74.234-91.283 74.234-171.555 0-108.687-45.819-199.969-114.37-257.154-62.868-51.502-148.468-74.234-268.52-74.234-68.551 0-125.736 5.683-154.151 11.366l103.004 543.079zM622.995 264.976c11.366 0 28.415-5.683 51.502-5.683 62.868 0 120.053 22.732 159.834 62.868 40.136 45.819 57.185 103.004 57.185 165.872 0 85.6-51.502 137.102-148.468 137.102-22.732 0-40.136 0-51.502-5.683l-68.551-354.475z" />
<glyph unicode="&#xe90f;" glyph-name="sfdc-icon-login" horiz-adv-x="1023" d="M511.467-60.73c-282.017 0-511.467 229.45-511.467 511.467s229.45 511.467 511.467 511.467c282.017 0 511.467-229.45 511.467-511.467s-229.45-511.467-511.467-511.467zM511.467 905.375c-250.761 0-454.638-203.877-454.638-454.638s203.877-454.638 454.638-454.638c250.761 0 454.638 203.877 454.638 454.638s-203.877 454.638-454.638 454.638zM284.148 166.589v111.173c0 79.206 40.846 151.309 105.845 192.155-39.426 34.808-63.223 85.245-63.223 139.233 0 101.938 82.758 184.696 184.696 184.696s184.696-82.758 184.696-184.696c0-54.343-23.797-104.78-63.223-139.233 64.999-40.846 105.845-112.949 105.845-192.155v-111.173h-454.638zM340.978 223.774h340.978v53.988c0 73.523-44.043 135.326-113.659 158.768v56.83c46.174 20.601 71.037 65.354 71.037 116.146 0 70.682-57.185 127.867-127.867 127.867s-127.867-57.185-127.867-127.867c0-50.436 24.863-95.545 71.037-116.146v-56.83c-69.616-23.442-113.659-85.245-113.659-158.768v-53.988z" />
<glyph unicode="&#xe910;" glyph-name="sfdc-icon-magnifying-glass" horiz-adv-x="1023" d="M724.579 326.423l299.421-299.421-88.441-88.441-299.421 299.421c-179.014-129.998-429.419-90.572-559.417 88.441s-90.572 429.419 88.441 559.417 429.419 90.572 559.417-88.441c101.938-140.298 101.938-330.323 0-470.976zM400.649 286.642c152.019 0 275.269 123.249 275.269 275.269s-123.249 275.269-275.269 275.269-275.624-123.249-275.624-275.269 123.605-275.269 275.624-275.269z" />
<glyph unicode="&#xe911;" glyph-name="sfdc-icon-minus" horiz-adv-x="1023" d="M68.196 382.187c-37.65 0-68.196 30.546-68.196 68.551s30.546 68.196 68.196 68.196l443.272 1.066 443.272-1.066c37.65 0 68.196-30.546 68.196-68.196s-30.546-68.196-68.196-68.196l-443.272 0.71-443.272-1.066z" />
<glyph unicode="&#xe912;" glyph-name="sfdc-icon-offsite" horiz-adv-x="1023" d="M998.071 940.894h-714.278c-4.973 0-8.88-3.907-8.88-8.88v-239.75h-250.051c-4.973 0-8.88-3.907-8.88-8.88v-714.278c0-4.973 3.907-8.88 8.88-8.88h714.633c4.973 0 8.88 3.907 8.88 8.88v239.75h249.695c4.973 0 8.88 3.907 8.88 8.88v714.278c0 4.973-3.907 8.88-8.88 8.88zM695.453 20.963c0-2.486-1.066-4.617-2.486-6.038s-3.552-2.486-6.038-2.486h-609.498c-4.973 0-8.88 3.907-8.88 8.88v610.209c0 2.486 1.066 4.617 2.486 6.038s3.552 2.486 6.038 2.486h198.194v-422.316c0-4.973 3.907-8.88 8.88-8.88h411.305v-187.893zM954.384 269.593c0-2.486-1.066-4.617-2.486-6.038s-3.552-2.486-6.038-2.486h-609.498c-4.973 0-8.88 3.907-8.88 8.88v610.209c0 2.486 1.066 4.617 2.486 6.038s3.552 2.486 6.038 2.486h609.498c4.973 0 8.88-3.907 8.88-8.88v-610.209zM536.33 771.47v-34.808c0-4.973 3.907-8.88 8.88-8.88h194.642c7.814 0 11.721-9.235 6.038-14.918l-311.498-311.498c-3.552-3.552-3.552-8.88 0-12.076l24.863-24.863c3.552-3.552 8.88-3.552 12.076 0l311.498 310.787c5.683 5.683 14.918 1.776 14.918-6.038v-194.287c0-4.973 3.907-8.88 8.88-8.88h34.808c4.973 0 8.88 3.907 8.88 8.88v296.58c0 4.973-3.907 8.88-8.88 8.88h-296.225c-4.973 0-8.88-4.262-8.88-8.88z" />
<glyph unicode="&#xe913;" glyph-name="sfdc-icon-pause-round" horiz-adv-x="1023" d="M762.228-60.73c-62.868 0-113.659 50.792-113.659 113.659v795.616c0 62.868 50.792 113.659 113.659 113.659s113.659-50.792 113.659-113.659v-795.616c0.355-62.868-50.436-113.659-113.659-113.659zM260.706-60.73c-62.868 0-113.659 50.792-113.659 113.659v795.616c0 62.868 50.792 113.659 113.659 113.659s113.659-50.792 113.659-113.659v-795.616c0-62.868-51.147-113.659-113.659-113.659z" />
<glyph unicode="&#xe914;" glyph-name="sfdc-icon-pause-square" d="M128 962.56h242.976v-1024h-242.976v1024zM648.672 962.56h242.976v-1024h-242.976v1024z" />
<glyph unicode="&#xe915;" glyph-name="sfdc-icon-play-only" d="M505.6 706.56l448-256-883.2-512v1024z" />
<glyph unicode="&#xe916;" glyph-name="sfdc-icon-play" d="M512 962.56c-283.296 0-512-228.704-512-512s228.704-512 512-512 512 228.704 512 512-228.704 512-512 512zM512-10.24c-254.304 0-460.8 206.496-460.8 460.8s206.496 460.8 460.8 460.8 460.8-206.496 460.8-460.8-206.496-460.8-460.8-460.8zM564.896 537.6l151.904-87.040-300.384-174.080v348.16l148.48-87.040z" />
<glyph unicode="&#xe917;" glyph-name="sfdc-icon-plus" horiz-adv-x="1023" d="M954.739 518.933h-375.076v374.721c0 37.65-30.546 68.196-68.196 68.196s-68.196-30.546-68.196-68.196v-374.721h-375.076c-37.65 0-68.196-30.546-68.196-68.196s30.546-68.196 68.196-68.196h374.721v-374.721c0-37.65 30.546-68.196 68.196-68.196s68.196 30.546 68.196 68.196v374.366h374.721c37.65 0 68.196 30.546 68.196 68.196s-29.836 68.551-67.485 68.551z" />
<glyph unicode="&#xe918;" glyph-name="sfdc-icon-product-analytics" horiz-adv-x="1023" d="M511.467 961.85c-282.373 0-511.467-229.095-511.467-511.467s229.095-511.467 511.467-511.467 511.467 229.095 511.467 511.467-229.095 511.467-511.467 511.467zM354.83 216.67c0-3.552-2.841-6.393-6.393-6.393h-90.572c-3.552 0-6.393 2.841-6.393 6.393v172.62c0 3.552 2.841 6.393 6.393 6.393h90.572c3.552 0 6.393-2.841 6.393-6.393v-172.62zM486.959 216.67c0-3.552-2.841-6.393-6.393-6.393h-90.572c-3.552 0-6.393 2.841-6.393 6.393v223.057c0 3.552 2.841 6.393 6.393 6.393h90.572c3.552 0 6.393-2.841 6.393-6.393 0-0.71 0-223.057 0-223.057zM618.733 216.67c0-3.552-2.841-6.393-6.393-6.393h-90.572c-3.552 0-6.393 2.841-6.393 6.393v394.256c0 3.552 2.841 6.393 6.393 6.393h90.572c3.552 0 6.393-2.841 6.393-6.393v-394.256zM750.862 216.67c0-3.552-2.841-6.393-6.393-6.393h-90.572c-3.552 0-6.393 2.841-6.393 6.393v522.123c0 3.552 2.841 6.393 6.393 6.393h90.572c3.552 0 6.393-2.841 6.393-6.393v-522.123z" />
<glyph unicode="&#xe919;" glyph-name="sfdc-icon-product-community" horiz-adv-x="1023" d="M672.721 428.006c-1.776 0.71-3.197 2.131-3.197 4.262v35.519c0 1.776 1.066 3.552 2.841 4.262 38.715 14.207 63.933 51.147 63.933 92.703 0 54.343-44.398 98.742-98.742 98.742-0.355 0-0.355 0-0.71 0-3.552 0-5.328-3.907-3.552-6.749 13.497-22.377 21.311-48.66 21.311-76.72 0-44.043-19.535-84.534-51.502-112.239-2.131-1.776-1.776-5.328 0.71-7.104 44.753-27.349 76.365-72.813 86.31-125.025v0c1.421-7.459 2.131-14.563 2.841-22.377h-0.355c-0.355-12.076-9.945-21.666-22.022-21.666s-22.022 9.945-22.022 22.022c0 0 0 0.355 0 0.355-0.355 4.262-1.066 8.169-1.776 12.076 0 0 0 0.355 0 0.355-9.59 53.278-49.371 96.966-102.649 112.239-1.776 0.71-3.197 2.131-3.197 4.262v35.519c0 1.776 1.066 3.552 2.841 4.262 40.491 15.273 66.775 53.988 66.775 97.321 0 58.25-48.305 105.49-106.911 104.069-53.988-1.421-98.386-44.753-101.228-98.386-2.486-45.464 24.508-87.020 66.775-103.004 1.776-0.71 2.841-2.131 2.841-4.262v-35.519c0-2.131-1.421-3.552-3.197-4.262-61.092-17.404-105.845-73.168-105.845-137.102v-31.612c0 0-0.71-22.022 21.666-22.022h363c0 0 22.022 0 22.022 22.022v31.612c0.355 58.961-40.491 110.463-96.966 126.446zM511.467 962.205c-282.373 0-511.467-229.095-511.467-511.467s229.095-511.467 511.467-511.467 511.467 229.095 511.467 511.467-229.095 511.467-511.467 511.467zM813.73 269.593c0-66.065-66.065-65.709-66.065-65.709h-362.289c-65.709 0-65.709 65.709-65.709 65.709v31.612c0 66.42 35.874 126.091 90.572 159.123 2.486 1.421 2.841 4.973 0.71 7.104-31.967 27.704-51.502 68.196-51.502 112.239 0 28.060 7.814 54.343 21.311 76.72 1.776 2.841-0.355 6.749-3.552 6.749-0.71 0-1.421 0-1.776 0-54.343 0-98.742-44.398-98.742-98.742 0-41.557 24.153-78.141 62.868-92.703 1.776-0.71 2.841-2.131 2.841-4.262v-35.519c0-2.131-1.421-3.552-3.197-4.262-56.475-15.983-94.835-67.485-94.835-126.446v-76.010c0-12.076-9.945-22.022-22.022-22.022s-22.022 9.945-22.022 22.022v76.010c0 61.447 31.256 116.856 80.982 148.112 2.486 1.421 2.841 4.973 0.355 7.104-30.546 26.639-49.371 65.354-49.371 107.621 0 78.496 63.933 142.429 142.429 142.429 14.918 0 29.48-2.131 43.333-6.749 1.421-0.355 2.841-0.355 3.907 0.71 24.153 17.049 53.278 26.994 84.889 26.994s60.737-9.945 84.534-26.639c1.066-0.71 2.486-1.066 3.907-0.71 13.497 4.262 28.060 6.393 42.622 6.393 78.496 0 142.429-63.933 142.429-142.429 0-42.267-18.47-81.337-49.371-107.621-2.131-1.776-2.131-5.328 0.355-7.104 49.726-31.612 82.048-86.665 82.048-148.112v-31.612z" />
<glyph unicode="&#xe91a;" glyph-name="sfdc-icon-product-industries" horiz-adv-x="1023" d="M646.72 367.822c-2.062 0.605-3.545 2.474-3.556 4.692v36.268c0.018 1.86 1.068 3.472 2.605 4.289l0.026 0.013c23.748 13.059 39.573 37.91 39.573 66.459 0 41.748-33.843 75.591-75.591 75.591s-75.591-33.843-75.591-75.591c0-28.548 15.826-53.4 39.183-66.261l0.391-0.197c1.558-0.836 2.605-2.444 2.631-4.299v-36.235c-0.011-2.219-1.493-4.089-3.521-4.685l-0.035-0.009c-51.275-14.629-89.909-56.635-99.427-108.803l-0.129-0.851-43.058 8.747c10.613 56.229 45.733 102.584 93.599 128.267l0.978 0.48c-21.297 21.511-34.454 51.114-34.454 83.79 0 21.631 5.766 41.916 15.845 59.4l-0.307-0.577h-0.498l-0.818 184.213s0.533 21.938-21.653 21.938h-178.524c-22.222 0-21.653-21.938-21.653-21.938l-0.818-518.827s-0.533-21.938 21.653-21.938h423.111s22.151 0 22.151 21.938v30.578h-0.462c-0.106 63.353-42.625 116.746-100.674 133.308l-0.979 0.239zM369.387 244.409c0-2.69-2.181-4.871-4.871-4.871v0h-34.133c-2.635 0.039-4.761 2.165-4.8 4.796v53.693c0 2.69 2.181 4.871 4.871 4.871v0h34.133c2.69 0 4.871-2.181 4.871-4.871v0zM369.387 371.164c0-2.69-2.181-4.871-4.871-4.871v0h-34.133c-2.69 0-4.871 2.181-4.871 4.871v0 53.618c0 2.69 2.181 4.871 4.871 4.871v0h34.133c2.69 0 4.871-2.181 4.871-4.871v0zM369.387 500.516c0-2.69-2.181-4.871-4.871-4.871v0h-34.133c-2.599 0.037-4.703 2.104-4.8 4.684v53.805c0 2.69 2.181 4.871 4.871 4.871v0h34.133c2.69 0 4.871-2.181 4.871-4.871v0zM369.387 629.831c0.002-0.053 0.003-0.116 0.003-0.179 0-2.654-2.122-4.812-4.762-4.87h-34.138c-2.69 0-4.871 2.181-4.871 4.871v0 53.796c0 2.69 2.181 4.871 4.871 4.871v0h34.133c2.69 0 4.871-2.181 4.871-4.871v0zM416.533 683.449c0 2.69 2.181 4.871 4.871 4.871v0h34.133c2.69 0 4.871-2.181 4.871-4.871v0-53.618c0.002-0.053 0.003-0.115 0.003-0.178 0-2.69-2.181-4.871-4.871-4.871-0.001 0-0.002 0-0.003 0h-34.133c-2.69 0-4.871 2.181-4.871 4.871v0zM416.533 554.133c0 2.69 2.181 4.871 4.871 4.871v0h34.133c2.69 0 4.871-2.181 4.871-4.871v0-53.796c0-2.69-2.181-4.871-4.871-4.871v0h-34.133c-2.69 0-4.871 2.181-4.871 4.871v0zM416.533 371.164v53.618c0 2.69 2.181 4.871 4.871 4.871v0h34.133c2.69 0 4.871-2.181 4.871-4.871v0-53.653c0-2.69-2.181-4.871-4.871-4.871v0h-34.133c0 0 0 0 0 0-2.69 0-4.871 2.181-4.871 4.871 0 0.013 0 0.025 0 0.037v-0.002zM512 962.56c-282.77 0-512-229.23-512-512s229.23-512 512-512c282.77 0 512 229.23 512 512v0c0 282.77-229.23 512-512 512v0zM792.676 203.662c0-66.204-66.027-65.813-66.027-65.813h-422.791c-65.813 0-65.813 65.813-65.813 65.813l0.818 518.827s-0.036 65.849 65.778 65.849h177.778c65.813 0 65.813-65.813 65.813-65.813l0.604-140.16c17.441 10.546 38.51 16.786 61.035 16.786 65.921 0 119.36-53.439 119.36-119.36 0-32.79-13.222-62.492-34.625-84.065l0.008 0.008c58.008-31.056 96.92-91.029 97.457-160.139v-0.074h0.498z" />
<glyph unicode="&#xe91b;" glyph-name="sfdc-icon-product-IoT" horiz-adv-x="1023" d="M511.467 961.85c-282.373 0-511.112-228.74-511.467-511.112 0 0 0 0 0-0.355 0 0 0 0 0-0.355 0.355-282.373 229.095-511.112 511.467-511.112s511.112 229.095 511.467 511.822c-0.355 282.373-229.095 511.112-511.467 511.112zM304.394 546.638c0-1.776-1.421-3.552-3.552-3.552h-13.497c-2.131 0-3.552-1.421-3.552-3.552v-177.948c0-2.131 1.421-3.552 3.552-3.552h13.497c2.131 0 3.552-1.421 3.552-3.552v-25.929c0-2.131-1.421-3.552-3.552-3.552h-69.972c-2.131 0-3.552 1.421-3.552 3.552v25.929c0 2.131 1.421 3.552 3.552 3.552h13.497c2.131 0 3.552 1.421 3.552 3.552v177.948c0 2.131-1.421 3.552-3.552 3.552h-13.497c-2.131 0-3.552 1.421-3.552 3.552v25.929c0 2.131 1.421 3.552 3.552 3.552h69.972c2.131 0 3.552-1.421 3.552-3.552v-25.929zM569.007 399.946c-3.907 0-8.169 0.355-11.721 1.066-7.459-13.497-22.022-22.732-38.36-22.732-6.749 0-13.497 1.421-19.18 4.262-7.814-18.114-25.573-30.546-46.174-30.546-21.666 0-40.136 13.852-47.24 33.032-3.197-0.71-6.393-1.066-9.59-1.066-25.929 0-46.529 20.956-46.529 47.24 0 17.404 9.235 32.677 23.442 40.846-2.841 6.749-4.617 13.852-4.617 21.666 0 29.836 24.153 54.343 54.343 54.343 17.049 0 32.677-8.524 42.622-21.666 8.88 9.235 21.666 15.273 35.519 15.273 18.47 0 34.453-10.3 42.977-25.573 7.459 3.197 15.628 5.328 24.508 5.328 33.387 0 60.382-27.349 60.382-60.737 0-33.743-26.994-60.737-60.382-60.737zM794.905 571.146v-28.415c0-2.131-1.421-3.552-3.552-3.552h-46.174c-2.131 0-3.552-1.421-3.552-3.552v-206.718c0-2.131-1.421-3.552-3.552-3.552h-28.415c-2.131 0-3.552 1.421-3.552 3.552v207.073c0 2.131-1.421 3.552-3.552 3.552h-46.174c-2.131 0-3.552 1.421-3.552 3.552v28.415c0 2.131 1.421 3.552 3.552 3.552h135.681c1.776-0.355 3.552-2.131 2.841-3.907z" />
<glyph unicode="&#xe91c;" glyph-name="sfdc-icon-product-lightning-thunder" horiz-adv-x="1023" d="M512 962.56c-282.77 0-512-229.23-512-512s229.23-512 512-512c282.77 0 512 229.23 512 512v0c0 282.77-229.23 512-512 512v0zM260.231 444.338c-0.001 0.316-0.002 0.69-0.002 1.064 0 105.245 65.325 195.233 157.639 231.63l1.687 0.586c5.049 1.956 10.169 3.804 15.324 5.44l4.302-13.547c-4.836-1.529-9.707-3.271-14.436-5.12-88.642-35.393-150.133-120.519-150.133-220.007 0-79.373 39.14-149.605 99.173-192.447l0.72-0.488-8.284-11.733c-64.401 45.99-105.906 120.45-105.991 204.609v0.013zM524.907 519.964l-104.462-0.213 100.622 254.684h182.364l-124.018-220.444 114.631-0.569-323.307-421.689zM510.684 193.956c-0.017 0-0.038 0-0.058 0-11.765 0-23.342 0.801-34.681 2.352l1.317-0.147 1.884 14.222c9.47-1.332 20.413-2.094 31.533-2.098h0.005c130.474 0.068 236.218 105.854 236.218 236.338 0 28.814-5.156 56.424-14.597 81.957l0.53-1.637 13.369 4.836c9.447-25.335 14.914-54.607 14.914-85.156 0-138.336-112.108-250.488-250.428-250.56h-0.007z" />
<glyph unicode="&#xe91d;" glyph-name="sfdc-icon-product-marketing" horiz-adv-x="1023" d="M511.467 962.205c-282.373 0-511.467-229.095-511.467-511.467s229.095-511.467 511.467-511.467 511.467 229.095 511.467 511.467-229.095 511.467-511.467 511.467zM686.929 369.4l-116.856-145.981c-1.421-1.776-3.907-1.776-4.973 0l-23.087 29.125c-1.421 1.421-1.421 3.907 0 5.328l114.015 142.785c20.956 29.836 32.677 66.42 31.256 105.845-2.841 90.572-75.655 164.806-165.872 169.424-101.228 5.328-184.696-75.299-184.696-175.106 0-37.294 11.721-71.747 31.256-100.162l100.518-126.091-0.355-0.355 73.523-87.376c6.393-8.169 6.393-19.535 0-27.349v0c-8.524-10.656-24.863-10.656-33.743 0l-171.555 209.915c-28.060 37.294-44.398 83.824-43.688 134.615 1.421 118.277 98.031 214.532 215.953 216.308 122.539 1.776 222.346-96.966 222.346-219.149-0.355-49.371-16.339-94.835-44.043-131.774zM511.467 369.4c-72.813 0-131.419 58.961-131.419 131.419s58.961 131.419 131.419 131.419c72.813 0 131.419-58.961 131.419-131.419s-58.606-131.419-131.419-131.419zM511.467 588.55c-48.305 0-87.731-39.426-87.731-87.731s39.426-87.731 87.731-87.731c48.305 0 87.731 39.426 87.731 87.731s-39.070 87.731-87.731 87.731zM511.467 457.131c-24.153 0-43.688 19.535-43.688 43.688s19.535 43.688 43.688 43.688c24.153 0 43.688-19.535 43.688-43.688 0.355-24.153-19.18-43.688-43.688-43.688z" />
<glyph unicode="&#xe91e;" glyph-name="sfdc-icon-product-mittlestand" horiz-adv-x="1023" d="M539.882 159.485h68.906v99.452c0 15.628 12.787 28.415 28.415 28.415h133.55v311.143h-230.871v-439.009zM609.854 422.323c0 15.628 12.787 28.415 28.415 28.415s28.415-12.787 28.415-28.415v-63.933c0-15.628-12.787-28.415-28.415-28.415s-28.415 12.787-28.415 28.415v63.933zM511.467 962.205c-282.373 0-511.467-229.095-511.467-511.467s229.095-511.467 511.467-511.467 511.467 229.095 511.467 511.467-229.095 511.467-511.467 511.467zM827.227 130.36c0-15.628-12.787-28.415-28.415-28.415h-2.131c-15.628 0-28.415 12.787-28.415 28.415v99.452h-103.004v-99.452c0-15.628-12.787-28.415-28.415-28.415h-381.824c-15.628 0-28.415 12.787-28.415 28.415v603.815c0 15.628 12.787 28.415 28.415 28.415h256.089c15.628 0 28.415-12.787 28.415-28.415s-12.787-28.415-28.415-28.415h-227.319v-546.631h198.904v467.779c0 15.628 12.787 28.415 28.415 28.415h288.055c15.628 0 28.415-12.787 28.060-28.415v-496.549zM383.245 513.961c-15.628 0-28.415 12.787-28.415 28.415v63.933c0 15.628 12.787 28.415 28.415 28.415s28.415-12.787 28.415-28.415v-63.933c0.355-15.273-12.431-28.415-28.415-28.415zM411.66 422.323v-63.933c0.355-15.628-12.431-28.415-28.415-28.415-15.628 0-28.415 12.787-28.415 28.415v63.933c0 15.628 12.787 28.415 28.415 28.415s28.415-13.142 28.415-28.415z" />
<glyph unicode="&#xe91f;" glyph-name="sfdc-icon-product-platform" horiz-adv-x="1023" d="M511.467 962.205c-282.373 0-511.467-229.095-511.467-511.467s229.095-511.467 511.467-511.467 511.467 229.095 511.467 511.467-229.095 511.467-511.467 511.467zM765.78 328.554c0-14.563-13.852-25.573-29.125-20.956-8.88 2.841-14.918 11.366-14.918 20.601v169.068c0 1.421-1.421 2.486-3.197 2.131l-156.992-65.354c-8.524-3.552-17.404-6.038-26.284-7.814-1.066-0.355-1.776-1.066-1.776-2.131v-196.773c0-12.076-9.945-22.022-22.022-22.022v0c-12.076 0-22.022 9.945-22.022 22.022v196.418c0 1.066-0.71 1.776-1.776 2.131-9.235 1.776-18.47 4.262-27.349 8.169l-156.637 65.354c-1.421 0.71-3.197-0.355-3.197-2.131v-169.068c0-14.563-13.852-25.573-29.125-20.956-8.88 2.841-14.918 11.366-14.918 20.601v239.75c0 3.552 2.131 6.749 5.328 8.169l213.822 89.507c21.666 8.88 45.819 9.235 67.485 0l166.227-68.906c2.841-1.066 2.841-4.973 0-6.038l-46.174-19.18c-2.131-1.066-4.617-1.066-6.749 0l-129.288 53.988c-10.656 4.617-23.087 4.617-33.743 0l-183.276-76.72c-1.776-0.71-1.776-3.197 0-3.907l175.817-73.168c16.339-6.749 34.453-6.749 50.436 0l224.477 93.414c2.131 1.066 4.617-0.71 4.617-3.197v-233.002z" />
<glyph unicode="&#xe920;" glyph-name="sfdc-icon-product-sales" horiz-adv-x="1023" d="M511.112 960.074c-282.373 0-511.467-229.095-511.467-511.467s229.095-511.467 511.467-511.467 511.467 229.095 511.467 511.467-228.74 511.467-511.467 511.467zM270.296 625.134c0 36.229 29.48 65.709 65.709 65.709h306.88c12.431 0 22.732-10.656 22.022-23.442-0.71-11.721-11.011-20.601-22.732-20.601h-306.17c-12.076 0-22.022-9.945-22.022-22.022v-239.040c0-1.066-1.066-2.131-2.131-2.131h-39.426c-1.066 0-2.131 1.066-2.131 2.131v239.395zM730.617 625.134c-1.066 0-2.486 0-3.552 0-0.71 0-1.421-0.355-1.776-0.71l-139.233-188.959c-1.421-1.776-3.552-2.131-5.683-1.421l-91.283 49.726c-1.066 0.71-2.486 0-3.197-1.066l-79.562-183.631c-0.71-1.776-2.131-2.486-3.907-2.486h-86.31c-1.066 0-2.131-1.066-2.131-2.131v-19.535c0-12.076 9.945-22.022 22.022-22.022h350.568c12.076 0 22.022 9.945 22.022 22.022v278.465c0 12.431 10.656 22.732 23.442 22.022 11.721-0.71 20.601-11.011 20.601-22.732v-277.755c0-36.229-29.48-65.709-65.709-65.709h-350.923c-36.229 0-65.709 29.48-65.709 65.709v63.578c0 1.066 1.066 2.131 2.131 2.131h103.004c0.71 0 1.776 0.355 2.131 1.421l86.665 200.325c1.066 2.486 3.907 3.197 6.038 2.131l99.097-53.988c1.066-0.355 2.131-0.355 2.841 0.71l117.211 159.834c0.355 0.71 0.71 1.421 0.355 2.131-2.131 4.973-3.197 10.656-3.197 16.339 0 24.863 20.956 45.109 46.174 43.688 22.022-1.066 40.136-19.18 41.557-41.557 1.421-25.573-18.825-46.529-43.688-46.529z" />
<glyph unicode="&#xe921;" glyph-name="sfdc-icon-product-service" horiz-adv-x="1023" d="M511.467 962.205c-282.373 0-511.467-229.095-511.467-511.467s229.095-511.467 511.467-511.467 511.467 229.095 511.467 511.467-229.095 511.467-511.467 511.467zM762.228 502.95c-2.486-99.807-95.545-181.5-165.161-228.74-2.131-1.421-4.973-1.421-7.104 0l-32.677 19.89c-2.131 1.066-2.131 3.907 0 5.328 16.694 10.656 36.229 24.153 55.409 39.781 47.595 38.36 104.78 98.031 106.556 164.096-0.355 60.382-23.442 103.004-64.289 116.856-41.912 14.207-90.572-5.328-124.67-49.726l-17.404-22.732-17.049 23.087c-32.322 44.398-80.627 64.289-122.539 50.436-41.202-13.497-66.065-57.54-66.065-117.566 1.421-66.065 58.606-125.736 106.2-164.096 4.262-3.552 8.88-7.104 13.497-10.656l-0.355-0.355c0 0 3.552-2.131 9.59-6.393 20.601-14.918 78.851-51.147 94.124-60.026 9.945-6.393 20.601-13.142 32.322-20.246 13.497-8.524 12.431-28.060-1.776-35.163-6.038-2.841-12.787-2.841-18.825 0-9.59 4.617-278.11 132.839-278.11 296.225v0.355c0 79.562 35.874 138.878 95.545 158.413 28.77 9.235 60.026 8.169 90.572-3.197 23.087-8.524 44.398-23.087 62.868-42.267 44.398 44.753 103.004 62.157 155.216 44.398 58.606-19.89 93.414-78.851 94.124-157.702v0z" />
<glyph unicode="&#xe922;" glyph-name="sfdc-icon-product-SMB" horiz-adv-x="1023" d="M511.467 962.205c-282.373 0-511.467-229.095-511.467-511.467s229.095-511.467 511.467-511.467 511.467 229.095 511.467 511.467-229.095 511.467-511.467 511.467zM753.349 214.184c0-13.497-11.011-24.863-24.863-24.863s-24.863 11.011-24.863 24.863v236.198h-110.818l2.131-227.674c0-6.749-2.486-12.787-7.104-17.759-4.617-4.617-11.011-7.459-17.404-7.459h-275.979c-13.497 0-24.863 11.011-24.863 24.863v252.537c0 13.497 11.011 24.863 24.863 24.863h434.392c13.497 0 24.863-11.011 24.863-24.863v-260.706zM820.834 546.283c-4.617-6.749-12.076-10.656-20.246-10.656h-577.887c-8.169 0-15.983 4.262-20.601 11.011s-5.328 15.628-2.131 23.087l52.567 126.801c3.907 9.235 12.787 15.273 22.732 15.273h475.593c10.3 0 19.18-6.393 23.087-15.628l49.726-126.801c2.841-7.814 1.776-16.339-2.841-23.087zM318.957 450.382v-203.166h226.253l-1.776 203.166zM291.607 662.428l-31.967-77.43h504.719l-30.546 77.43z" />
<glyph unicode="&#xe923;" glyph-name="sfdc-icon-retweet" horiz-adv-x="1023" d="M254.313 288.418v267.1h103.359l-179.014 203.521-179.014-203.521h103.359v-307.946c0-56.475 45.819-102.293 102.293-102.293h459.255l-131.063 143.14h-279.176zM919.22 348.799v307.946c0 56.475-45.819 102.293-102.293 102.293h-459.255l131.063-143.14h279.176v-267.1h-103.359l179.014-203.521 179.014 203.521h-103.359z" />
<glyph unicode="&#xe924;" glyph-name="sfdc-icon-right-arrow" horiz-adv-x="1023" d="M235.843-2.834l444.337 444.337c4.973 4.973 4.973 12.787 0 17.759l-444.337 444.692c-4.973 4.973-4.973 12.787 0 17.759l35.519 35.519c4.973 4.973 12.787 4.973 17.759 0l497.615-497.615c4.973-4.973 4.973-12.787 0-17.759l-497.615-497.615c-4.973-4.973-12.787-4.973-17.759 0l-35.519 35.519c-4.617 4.617-4.617 12.787 0 17.404z" />
<glyph unicode="&#xe925;" glyph-name="sfdc-icon-share" horiz-adv-x="1023" d="M884.412-61.085h-873.757c-6.038 0-10.656 4.617-10.656 10.656v873.757c0 6.038 4.617 10.656 10.656 10.656h426.933c6.038 0 10.656-4.617 10.656-10.656v-42.267c0-6.038-4.617-10.656-10.656-10.656h-362.644c-6.038 0-10.656-4.617-10.656-10.656v-746.245c0-6.038 4.617-10.656 10.656-10.656h745.535c6.038 0 10.656 4.617 10.656 10.656v362.289c0 6.038 4.617 10.656 10.656 10.656h42.622c6.038 0 10.656-4.617 10.656-10.656v-426.223c0-6.038-4.973-10.656-10.656-10.656zM639.334 951.194v-42.622c0-6.038 4.617-10.656 10.656-10.656h237.974c9.59 0 14.207-11.366 7.459-18.114l-463.162-463.162c-4.262-4.262-4.262-11.011 0-14.918l30.191-30.191c4.262-4.262 11.011-4.262 14.918 0l463.517 462.452c6.749 6.749 18.114 2.131 18.114-7.459v-237.974c0-6.038 4.617-10.656 10.656-10.656h42.622c6.038 0 10.656 4.617 10.656 10.656v362.644c0 6.038-4.617 10.656-10.656 10.656h-362.289c-6.038 0-10.656-4.973-10.656-10.656z" />
<glyph unicode="&#xe926;" glyph-name="sfdc-icon-social-facebook-inverted" horiz-adv-x="1023" d="M776.080 792.071h-96.61c-75.655 0-89.862-35.874-89.862-88.441v-116.146h180.434l-23.087-181.855h-156.282v-467.069h-187.893v467.424h-156.992v181.855h156.992v133.905c0 155.571 95.19 240.105 234.067 240.105 66.775 0 123.605-5.328 140.653-7.459v-162.32h-1.421z" />
<glyph unicode="&#xe927;" glyph-name="sfdc-icon-social-facebook" horiz-adv-x="1023" d="M511.467 961.85c-282.373 0-511.467-229.095-511.467-511.467s229.095-511.467 511.467-511.467c282.373 0 511.467 229.095 511.467 511.467s-229.095 511.467-511.467 511.467zM637.558 612.702h-45.819c-35.874 0-42.622-17.049-42.622-41.912v-55.054h85.6l-11.011-86.31h-74.234v-221.636h-89.152v221.636h-74.589v86.31h74.589v63.578c0 73.879 45.109 114.015 111.173 114.015 31.612 0 58.606-2.486 66.775-3.552v-77.075z" />
<glyph unicode="&#xe928;" glyph-name="sfdc-icon-social-google-inverted" horiz-adv-x="1023" d="M325.35 125.032c-180.079 0-325.35 145.626-325.35 325.35 0 180.079 145.626 325.35 325.35 325.35 88.086 0 160.899-32.322 218.084-85.245l-88.441-85.245c-24.153 23.087-66.775 50.081-129.288 50.081-110.818 0-201.745-91.993-201.745-205.297s90.928-205.297 201.745-205.297c128.932 0 177.238 92.703 184.696 140.298h-184.696v111.528h306.88c2.841-15.983 5.328-32.677 5.328-53.988 0.355-185.052-124.315-317.536-312.563-317.536zM1022.934 403.853h-93.059v-93.059h-93.059v93.059h-93.059v93.059h93.059v93.059h93.059v-93.059h93.059v-93.059z" />
<glyph unicode="&#xe929;" glyph-name="sfdc-icon-social-google" horiz-adv-x="1023" d="M511.467 961.85c-282.373 0-511.467-229.095-511.467-511.467s229.095-511.467 511.467-511.467 511.467 229.095 511.467 511.467-229.095 511.467-511.467 511.467zM396.387 249.347c-111.173 0-201.035 89.862-201.035 201.035s89.862 201.035 201.035 201.035c54.343 0 99.452-19.89 134.615-52.567l-54.699-52.567c-14.918 14.207-41.202 30.901-79.917 30.901-68.551 0-124.67-56.83-124.67-126.801s56.119-126.801 124.67-126.801c79.562 0 109.397 57.185 114.015 86.665h-114.015v68.906h189.669c1.776-9.945 3.197-20.246 3.197-33.387 0.355-114.725-76.72-196.418-192.866-196.418zM827.227 421.612h-57.54v-57.54h-57.54v57.54h-57.54v57.54h57.54v57.54h57.54v-57.54h57.54v-57.54z" />
<glyph unicode="&#xe92a;" glyph-name="sfdc-icon-social-linkedin-inverted" horiz-adv-x="1023" d="M219.505-20.594h-219.505v653.541h219.505v-653.541zM111.528 707.182c-60.382 0-107.621 47.24-107.621 107.621s47.24 107.621 107.621 107.621c60.382 0 107.621-47.24 107.621-107.621 0.355-60.382-47.24-107.621-107.621-107.621zM1022.934-20.594h-210.98v309.722c0 73.523 0 167.292-107.621 167.292s-124.67-81.693-124.67-163.741v-314.339h-210.98v653.541h201.745v-103.359h4.617c29.836 51.857 94.835 103.359 197.838 103.359 210.98 0 249.34-133.195 249.34-305.104v-347.727h0.71z" />
<glyph unicode="&#xe92b;" glyph-name="sfdc-icon-social-linkedin" horiz-adv-x="1023" d="M511.467 961.85c-282.373 0-511.467-229.095-511.467-511.467s229.095-511.467 511.467-511.467c282.373 0 511.467 229.095 511.467 511.467 0 282.728-229.095 511.467-511.467 511.467zM375.786 264.62h-101.938v303.684h101.938v-303.684zM325.705 602.402c-28.060 0-50.081 22.022-50.081 50.081s22.022 50.081 50.081 50.081 50.081-22.022 50.081-50.081-22.022-50.081-50.081-50.081zM749.086 264.62h-98.031v143.85c0 34.098 0 77.786-50.081 77.786s-57.895-38.005-57.895-76.010v-145.981h-98.031v303.684h93.769v-47.95h2.131c13.852 24.153 44.043 47.95 91.993 47.95 98.031 0 115.79-61.802 115.79-141.719v-161.609z" />
<glyph unicode="&#xe92c;" glyph-name="sfdc-icon-social-twitter-inverted" horiz-adv-x="1023" d="M918.155 659.232c0.355-8.88 0.71-18.114 0.71-27.349 0-277.045-211.335-597.067-597.067-597.067-118.632 0-228.74 34.808-321.798 94.124 16.339-2.131 33.032-2.841 50.081-2.841 98.386 0 188.959 33.743 260.706 89.862-91.993 1.776-169.424 62.513-196.062 145.626 12.787-2.486 25.929-3.907 39.426-3.907 19.18 0 37.65 2.486 55.409 7.459-95.9 19.535-168.358 104.069-168.358 205.652 0 1.066 0 1.776 0 2.841 28.060-15.628 60.737-25.218 94.835-26.284-56.119 38.005-93.414 102.293-93.414 175.106 0 38.36 10.3 74.589 28.415 105.49 103.359-126.801 258.22-210.625 432.616-219.149-3.552 15.628-5.328 31.612-5.328 47.95 0 116.146 93.769 209.915 209.915 209.915 60.382 0 114.725-25.573 153.085-66.42 47.95 9.59 92.703 26.994 133.195 50.792-15.628-49.016-49.016-90.217-92.348-116.146 42.622 4.973 82.758 16.339 120.763 33.032-28.060-42.267-63.933-79.206-104.78-108.687v0z" />
<glyph unicode="&#xe92d;" glyph-name="sfdc-icon-social-twitter" horiz-adv-x="1023" d="M511.467 962.205c-282.373 0-511.467-229.095-511.467-511.467s229.095-511.467 511.467-511.467c282.373 0 511.467 229.095 511.467 511.467s-229.095 511.467-511.467 511.467v0zM765.78 581.091c0.355-5.683 0.355-11.366 0.355-17.049 0-173.331-132.129-373.3-373.3-373.3-74.234 0-143.14 21.666-201.035 58.961 10.3-1.421 20.601-1.776 31.256-1.776 61.447 0 117.922 20.956 163.030 56.119-57.54 1.066-105.845 39.070-122.539 90.928 8.169-1.421 16.339-2.486 24.508-2.486 12.076 0 23.442 1.776 34.453 4.617-60.026 12.076-105.135 64.999-105.135 128.577 0 0.71 0 1.066 0 1.776 17.759-9.945 38.005-15.628 59.316-16.339-35.163 23.442-58.25 63.578-58.25 109.042 0 24.153 6.393 46.529 17.759 66.065 64.644-79.206 161.254-131.419 270.296-137.102-2.131 9.59-3.197 19.535-3.197 29.836 0 72.458 58.606 131.063 131.063 131.063 37.65 0 71.747-15.983 95.9-41.557 29.836 6.038 57.895 16.694 83.113 31.967-9.59-30.546-30.546-56.475-57.54-72.458 26.639 3.197 51.857 10.3 75.299 20.601-17.759-25.929-39.781-49.016-65.354-67.485v0z" />
<glyph unicode="&#xe92e;" glyph-name="sfdc-icon-social-youtube-inverted" horiz-adv-x="1023" d="M1012.634 655.324c0 0-9.945 70.327-40.491 101.583-39.070 40.846-82.403 40.846-102.649 43.333-143.14 10.3-358.027 10.3-358.027 10.3h-0.355c0 0-214.887 0-358.027-10.3-19.89-2.486-63.578-2.486-102.649-43.333-30.191-31.256-40.136-101.583-40.136-101.583s-10.3-82.758-10.3-165.872v-77.43c0-82.758 10.3-165.516 10.3-165.516s9.945-70.327 40.491-101.583c39.070-40.846 89.862-39.426 112.949-43.688 81.693-7.814 347.727-10.3 347.727-10.3s214.887 0.355 358.027 10.656c19.89 2.486 63.578 2.486 102.649 43.333 30.546 30.901 40.491 101.583 40.491 101.583s10.3 82.758 10.3 165.516v77.43c0 83.113-10.3 165.872-10.3 165.872zM405.977 317.898v287.345l276.334-144.205-276.334-143.14z" />
<glyph unicode="&#xe92f;" glyph-name="sfdc-icon-social-youtube" horiz-adv-x="1023" d="M451.441 375.083l156.992 81.693-156.992 82.048zM511.467 962.205c-282.373 0-511.467-229.095-511.467-511.467s229.095-511.467 511.467-511.467c282.373 0 511.467 229.095 511.467 511.467s-229.095 511.467-511.467 511.467zM802.364 428.716c0-47.24-5.683-94.124-5.683-94.124s-5.683-40.136-23.087-57.895c-22.022-23.087-46.884-23.442-58.25-24.508-81.337-6.038-203.877-6.038-203.877-6.038s-151.309 1.421-197.838 5.683c-12.787 2.486-41.912 1.776-64.289 24.863-17.404 17.759-23.087 57.895-23.087 57.895s-5.683 47.24-5.683 94.124v44.043c0 47.24 5.683 94.124 5.683 94.124s5.683 40.136 23.087 57.895c22.022 23.087 46.884 23.442 58.25 24.508 81.337 6.038 203.521 6.038 203.521 6.038h0.355c0 0 122.184 0 203.521-6.038 11.366-1.421 36.229-1.421 58.25-24.508 17.404-17.759 23.087-57.895 23.087-57.895s5.683-47.24 5.683-94.124v-44.043z" />
<glyph unicode="&#xe930;" glyph-name="sfdc-icon-sound-bar" d="M384 962.56h242.976v-1024h-242.976v1024z" />
<glyph unicode="&#xe931;" glyph-name="sfdc-icon-sound-mute" d="M1024.993 861.618l-64.078 74.752-437.776-416.396-437.776 416.396-74.752-74.752 427.070-416.396-427.070-416.396 74.752-74.752 437.776 416.396 437.776-416.396 64.078 74.752-427.070 416.396z" />
<glyph unicode="&#xe932;" glyph-name="sfdc-icon-sound" d="M984.768 962.56l-543.168-311.648h-409.6v-400.704h409.6l543.168-311.648z" />
<glyph unicode="&#xe933;" glyph-name="sfdc-icon-star" horiz-adv-x="1023" d="M538.817 920.648l127.156-281.307c4.262-9.59 13.497-16.339 24.153-17.404l305.815-33.032c25.929-2.841 36.229-34.808 17.049-52.212l-227.319-208.849c-7.814-7.104-11.366-17.759-9.235-28.415l61.802-300.487c5.328-25.218-21.666-45.109-44.398-32.322l-267.81 150.954c-9.235 5.328-20.601 5.328-29.48 0l-267.81-150.954c-22.377-12.787-49.726 7.104-44.398 32.322l61.802 300.487c2.131 10.3-1.421 21.311-9.235 28.415l-226.964 208.494c-19.18 17.404-8.524 49.371 17.049 52.212l305.815 33.032c10.656 1.066 19.89 7.814 24.153 17.404l127.156 281.307c10.656 24.153 44.043 24.153 54.699 0.355z" />
<glyph unicode="&#xe934;" glyph-name="sfdc-icon-talk-bubble-plus" horiz-adv-x="1023" d="M639.334 164.103c44.398 63.223 71.392 141.364 71.392 226.253 0 208.494-159.123 377.562-355.186 377.562s-355.541-169.068-355.541-377.917c0-208.494 159.123-377.562 355.186-377.562 79.917 0 153.44 28.415 212.756 75.655l142.429-75.655-71.037 151.664zM829.003 888.681h65.354v-322.508h-65.354v322.508zM700.426 760.104h322.508v-65.354h-322.508v65.354z" />
<glyph unicode="&#xe935;" glyph-name="sfdc-icon-talk-bubble" d="M898.844 144.427c60.444 85.689 96.711 191.289 96.711 306.489 0 282.667-215.467 512-481.422 512s-481.778-228.978-481.778-512c0-282.667 215.467-512 481.422-512 108.444 0 208 38.4 288.356 102.756l193.067-102.756-96.356 205.511z" />
<glyph unicode="&#xe936;" glyph-name="sfdc-icon-tooltip" horiz-adv-x="1023" d="M766.49 450.382c0-140.845-114.178-255.023-255.023-255.023s-255.023 114.178-255.023 255.023c0 140.845 114.178 255.023 255.023 255.023s255.023-114.178 255.023-255.023zM511.467-60.73c-282.017 0-511.467 229.45-511.467 511.467s229.45 511.467 511.467 511.467 511.467-229.45 511.467-511.467-229.45-511.467-511.467-511.467zM511.467 840.021c-214.887 0-389.639-174.751-389.639-389.639s174.751-389.283 389.639-389.283c214.887 0 389.639 174.751 389.639 389.639s-174.751 389.283-389.639 389.283z" />
<glyph unicode="&#xe937;" glyph-name="sfdc-icon-up-arrow" horiz-adv-x="1023" d="M965.75 174.403l-445.403 445.758c-4.973 4.973-12.787 4.973-17.759 0l-445.403-445.758c-4.973-4.973-12.787-4.973-17.759 0l-35.519 35.519c-4.973 4.973-4.973 12.787 0 17.759l498.681 499.036c4.973 4.973 12.787 4.973 17.759 0l499.036-498.681c4.973-4.973 4.973-12.787 0-17.759l-35.519-35.519c-4.973-4.973-13.142-4.973-18.114-0.355z" />
<glyph unicode="&#xe938;" glyph-name="sfdc-icon-volume" horiz-adv-x="1023" d="M435.458 743.411c-15.273 7.104-33.032 4.262-45.819-6.749l-112.949-98.386h-234.067c-23.442 0-42.622-19.18-42.622-42.622v-289.831c0-23.442 19.18-42.622 42.622-42.622h234.067l112.949-98.386c7.814-6.749 17.759-10.656 28.060-10.656 6.038 0 12.076 1.421 17.759 3.907 15.273 7.104 24.863 22.022 24.863 38.715v507.56c0 16.694-9.59 31.967-24.863 39.070zM584.28 273.5c-10.3 0-20.601 3.907-29.125 11.366-17.404 15.983-18.47 42.977-2.486 60.382 0.355 0.355 41.202 46.174 41.202 105.49s-40.846 105.135-41.557 105.49c-15.628 17.404-14.563 44.398 2.841 60.026 17.404 15.983 44.043 14.918 60.026-2.486 2.486-2.841 63.933-70.327 63.933-163.385s-61.447-160.544-63.933-163.385c-8.169-8.88-19.535-13.497-30.901-13.497zM726.71 206.37c-10.3 0-20.601 3.907-29.125 11.366-17.404 15.983-18.47 42.977-2.486 60.382 0.71 0.71 67.485 75.299 67.485 172.62 0 98.386-66.775 171.91-67.485 172.62-15.983 17.404-14.918 44.398 2.486 60.382s44.398 14.918 60.382-2.486c3.552-3.907 90.217-99.097 90.217-230.515s-86.665-226.608-90.217-230.515c-8.169-9.235-19.535-13.852-31.256-13.852zM864.166 111.18c-10.3 0-20.601 3.907-29.125 11.366-17.404 15.983-18.47 42.977-2.486 60.382 1.066 1.066 104.78 116.146 104.78 267.81 0 152.73-103.714 266.744-104.78 267.81-15.983 17.404-14.918 44.398 2.486 60.382s44.398 14.918 60.382-2.486c5.328-5.683 127.512-139.943 127.512-325.705s-122.539-320.022-127.512-325.705c-8.524-9.235-19.89-13.852-31.256-13.852z" />
<glyph unicode="&#xe939;" glyph-name="sfdc-icon-whitepaper" horiz-adv-x="1023" d="M689.77 962.205h-566.521c-5.328 0-9.59-4.262-9.59-9.59v-1004.11c0-5.328 4.262-9.59 9.59-9.59h776.791c5.328 0 9.59 4.262 9.59 9.59v794.195c0 2.486-1.066 4.973-2.841 6.749l-210.27 209.915c-1.776 1.776-4.262 2.841-6.749 2.841zM698.295 877.315l126.446-126.446c6.038-6.038 1.776-16.339-6.749-16.339h-126.446c-5.328 0-9.59 4.262-9.59 9.59v126.446c0 8.524 10.3 12.787 16.339 6.749zM842.855-3.9h-662.776c-5.328 0-9.59 4.262-9.59 9.59v890.095c0 5.328 4.262 9.59 9.59 9.59h435.813c5.328 0 9.59-4.262 9.59-9.59v-208.494c0-5.328 4.262-9.59 9.59-9.59h208.494c5.328 0 9.59-4.262 9.59-9.59v-663.131c-0.71-4.617-4.973-8.88-10.3-8.88z" />
<glyph unicode="&#xe93a;" glyph-name="sfdc-icon-whitepaper2" horiz-adv-x="1023" d="M511.467 962.205c-282.373 0-511.467-229.095-511.467-511.467s229.095-511.467 511.467-511.467 511.467 229.095 511.467 511.467-229.095 511.467-511.467 511.467zM712.147 236.916c0-2.486-2.131-4.617-4.617-4.617h-363.355c-2.486 0-4.617 2.131-4.617 4.617v469.911c0 2.486 2.131 4.617 4.617 4.617h265.324c1.066 0 2.486-0.355 3.197-1.421l98.386-98.386c0.71-0.71 1.421-2.131 1.421-3.197v-371.524zM681.246 578.249h-97.676c-2.486 0-4.617 2.131-4.617 4.617v97.676c0 2.486-2.131 4.617-4.617 4.617h-203.877c-2.486 0-4.617-2.131-4.617-4.617v-416.633c0-2.486 2.131-4.617 4.617-4.617h310.432c2.486 0 4.617 2.131 4.973 4.262v310.432c0 2.131-2.131 4.262-4.617 4.262zM610.209 604.888h59.316c3.907 0 6.038 4.973 3.197 7.814l-59.316 59.316c-2.841 2.841-7.814 0.71-7.814-3.197v-59.316c0-2.841 2.131-4.617 4.617-4.617z" />
<glyph unicode="&#xe93b;" glyph-name="sfdc-icon-x" horiz-adv-x="1023" d="M1018.672 917.451l-40.491 40.491c-5.683 5.683-14.563 5.683-20.246 0l-436.168-436.523c-5.683-5.683-14.563-5.683-20.246 0l-436.523 436.523c-5.683 5.683-14.563 5.683-20.246 0l-40.491-40.491c-5.683-5.683-5.683-14.563 0-20.246l436.168-436.523c5.683-5.683 5.683-14.563 0-20.246l-436.168-436.168c-5.683-5.683-5.683-14.563 0-20.246l40.491-40.491c5.683-5.683 14.563-5.683 20.246 0l436.523 436.523c5.683 5.683 14.563 5.683 20.246 0l436.523-436.523c5.683-5.683 14.563-5.683 20.246 0l40.491 40.491c5.683 5.683 5.683 14.563 0 20.246l-436.523 436.168c-5.683 5.683-5.683 14.563 0 20.246l436.168 436.523c5.683 5.683 5.683 14.563 0 20.246z" />
<glyph unicode="&#xe93c;" glyph-name="sfdc-icon-certified" horiz-adv-x="1023" d="M395.677 456.065c0 0-4.262 0.71-8.88 0.71-6.749 0-9.235-2.486-9.235-2.486-1.776-1.421-2.841-3.552-2.841-6.393 0-1.776 0.355-3.197 1.066-4.262 0.355-0.71 0.71-1.066 1.776-1.776v0c0 0 2.841-2.131 9.59-1.776 4.617 0.355 8.88 1.066 8.88 1.066v0 14.918zM459.255 475.245c-4.262 0-7.104-1.776-9.235-4.617-1.421-2.131-2.131-4.617-2.486-7.459h23.087c-0.355 2.841-0.71 5.683-2.131 7.459-2.131 3.197-4.973 4.617-9.235 4.617zM718.54 475.245c-4.262 0-7.104-1.776-9.235-4.617-1.421-2.131-2.131-4.617-2.486-7.459h23.087c-0.355 2.841-0.71 5.683-2.131 7.459-2.131 3.197-4.973 4.617-9.235 4.617zM589.253 475.245c-4.262 0-7.459-1.421-9.235-4.617-2.131-3.197-3.197-7.459-3.197-12.787 0-5.683 1.066-9.945 3.197-13.142s4.973-4.617 9.235-4.617c4.262 0 7.459 1.421 9.235 4.617 2.131 3.197 3.197 7.459 3.197 13.142s-1.066 9.945-3.197 12.787c-1.776 3.197-4.973 4.617-9.235 4.617zM676.629 588.194c-17.404 0-33.743-3.552-48.66-10.3-17.049 30.546-49.371 51.147-86.31 51.147-27.704 0-52.923-11.721-70.682-30.546-19.89 25.929-51.147 42.622-86.31 42.622-60.026 0-108.332-48.305-108.332-108.332 0-15.273 3.197-29.836 8.88-42.977-27.704-16.339-46.529-46.529-46.529-81.337 0-51.857 41.912-94.124 93.059-94.124 6.393 0 13.142 0.71 19.18 2.131 14.207-38.36 51.147-65.709 94.124-65.709 41.557 0 77.075 25.218 92.348 61.092 11.721-5.683 24.863-8.88 38.36-8.88 33.032 0 61.802 18.114 76.72 45.109 7.814-1.421 15.628-2.486 23.797-2.486 66.42 0 120.408 54.343 120.408 121.473 0.355 66.775-53.278 121.118-120.053 121.118zM358.382 447.541c0-9.945-7.104-15.983-18.47-15.983-5.683 0-11.011 0.71-16.694 3.907-1.066 0.71-2.131 1.066-3.197 1.776 0 0-0.71 0.355-0.355 1.421l2.131 6.393c0.355 1.066 1.066 0.71 1.421 0.355 0.71-0.355 1.066-0.71 1.776-1.066 6.749-4.262 12.787-4.262 14.918-4.262 4.973 0 8.169 2.486 8.169 6.038v0.355c0 3.907-4.617 5.328-10.3 7.104l-1.066 0.355c-7.459 2.131-15.628 5.328-15.628 14.918v0.355c0 9.235 7.459 15.273 17.759 15.273h1.066c6.038 0 12.076-1.776 16.339-4.262 0.355-0.355 0.71-0.71 0.71-1.421-0.355-0.71-2.131-5.683-2.486-6.393-0.355-1.066-1.421-0.355-1.421-0.355-3.907 2.131-9.59 3.552-14.563 3.552-4.262 0-7.459-2.486-7.459-5.683v-0.355c0-3.907 4.973-5.328 10.656-7.104l1.066-0.355c7.459-2.131 15.628-5.328 15.628-14.563v0zM405.267 434.754c0 0-1.066-0.355-2.131-0.71s-4.973-1.066-8.169-1.421c-3.197-0.71-6.393-0.71-9.945-0.71-3.197 0-6.038 0.355-8.524 0.71-2.486 0.71-4.973 1.421-6.749 2.841s-3.197 2.841-4.262 4.973c-1.066 2.131-1.421 4.617-1.421 7.459s0.71 5.328 1.776 7.459c1.066 2.131 2.841 3.907 4.617 5.328 2.131 1.421 4.262 2.486 6.749 3.197s5.328 1.066 7.814 1.066c2.131 0 3.907 0 4.973 0 0 0 2.486-0.355 5.328-0.71v1.421c0 4.262-1.066 6.393-2.841 7.814s-4.617 2.131-8.169 2.131c0 0-7.814 0-14.207-3.197-0.355 0-0.355-0.355-0.355-0.355s-0.71-0.355-1.066 0.355l-2.131 6.038c-0.355 1.066 0.355 1.421 0.355 1.421 2.841 2.131 9.945 3.552 9.945 3.552 2.486 0.355 6.393 0.71 8.524 0.71 6.393 0 11.366-1.421 14.918-4.617 3.552-2.841 4.973-7.814 4.973-14.207v-29.48c0.71 0 0.71-1.066 0-1.066zM426.933 433.689c0-0.71-0.355-1.066-1.066-1.066h-8.524c-0.71 0-1.066 0.355-1.066 1.066v68.906c0 0.71 0.355 1.066 1.066 1.066h8.524c0.71 0 1.066-0.355 1.066-1.066v-68.906zM480.566 456.065c0-0.71-1.066-0.71-1.066-0.71h-32.322c0.355-4.973 1.421-8.524 3.907-10.656 2.486-2.486 6.038-3.907 11.011-3.907 7.814 0 11.011 1.421 13.142 2.486 0 0 1.066 0.355 1.066-0.71l2.131-6.038c0.355-1.066 0-1.421-0.355-1.421-2.131-1.066-7.104-3.197-16.339-3.197-4.617 0-8.524 0.71-11.721 1.776-3.197 1.421-6.038 3.197-8.169 5.328s-3.552 4.973-4.617 8.169c-1.066 3.197-1.421 6.749-1.421 10.3s0.355 7.104 1.421 10.3c1.066 3.197 2.486 6.038 4.262 8.524 2.131 2.486 4.617 4.262 7.459 5.683s6.749 2.131 10.656 2.131c3.552 0 6.749-0.71 9.235-1.776 2.131-0.71 3.907-2.486 6.038-4.617 1.421-1.421 3.197-4.617 4.262-7.459 2.486-7.814 1.421-13.852 1.421-14.207zM490.866 435.465c-1.066 0.71-2.131 1.066-3.197 1.776 0 0-0.71 0.355-0.355 1.421l2.131 6.393c0.355 1.066 1.421 0.71 1.421 0.355 0.71-0.355 1.066-0.71 1.776-1.066 6.749-4.262 12.787-4.262 14.918-4.262 4.973 0 8.169 2.486 8.169 6.038v0.355c0 3.907-4.617 5.328-10.3 7.104l-1.066 0.355c-7.459 2.131-15.628 5.328-15.628 14.918v0.355c0 9.235 7.459 15.273 17.759 15.273h1.066c6.038 0 12.076-1.776 16.339-4.262 0.355-0.355 0.71-0.71 0.71-1.421-0.355-0.71-2.131-5.683-2.486-6.393-0.355-1.066-1.421-0.355-1.421-0.355-3.907 2.131-9.59 3.552-14.563 3.552-4.262 0-7.459-2.486-7.459-5.683v-0.355c0-3.907 4.973-5.328 10.656-7.104l1.066-0.355c7.459-2.486 15.628-5.683 15.628-14.563v-0.355c0-9.945-7.104-15.983-18.47-15.983-5.683 0.355-11.011 1.066-16.694 4.262zM564.035 475.245c-0.355-1.066-1.066-1.066-1.066-1.066h-10.656l-7.459-41.202c-0.71-4.262-1.776-7.814-2.841-11.011-1.066-2.841-2.486-4.973-4.262-7.104-1.776-1.776-3.552-3.197-6.038-4.262-2.131-0.71-4.973-1.066-7.814-1.066-1.421 0-2.841 0-4.617 0.355-1.421 0.355-2.131 0.355-2.841 0.71-0.355 0-0.71 0.71-0.355 1.421s2.131 6.038 2.486 6.749c0.355 0.71 1.066 0.355 1.066 0.355 0.71-0.355 1.066-0.355 1.776-0.71 0.71 0 1.776-0.355 2.486-0.355 1.421 0 2.841 0 3.907 0.71 1.421 0.355 2.131 1.066 2.841 2.131s1.421 2.486 2.131 4.617c0.71 2.131 1.421 4.617 1.776 7.814l7.104 40.491h-7.104c-0.71 0-1.066 0.355-1.066 1.066l1.066 6.749c0.355 1.066 1.066 1.066 1.066 1.066h7.459l0.355 2.131c1.066 6.393 3.197 11.366 6.393 14.563s7.814 4.973 13.852 4.973c1.776 0 3.197 0 4.262-0.355s2.131-0.355 3.197-0.71c0.355 0 0.71-0.355 0.71-1.066l-2.486-6.749c-0.355-0.355-0.355-0.71-1.421-0.355-0.355 0-0.71 0.355-1.776 0.355-0.71 0-1.776 0.355-2.486 0.355-1.421 0-2.486 0-3.552-0.355s-1.776-1.066-2.841-1.776c-0.71-0.71-1.776-2.131-2.131-3.552-1.066-3.552-1.776-7.104-1.776-7.459h10.3c0.71 0 1.066-0.355 1.066-1.066l-0.71-6.393zM611.274 447.541c-1.066-3.197-2.486-6.038-4.262-8.169-2.131-2.486-4.262-4.262-7.459-5.683-2.841-1.421-6.393-2.131-10.3-2.131s-7.459 0.71-10.3 2.131c-2.841 1.421-5.328 3.197-7.459 5.683-1.776 2.486-3.552 4.973-4.262 8.169-1.066 3.197-1.421 6.749-1.421 10.3s0.355 7.104 1.421 10.3c1.066 3.197 2.486 6.038 4.262 8.169 2.131 2.486 4.262 4.262 7.459 5.683 2.841 1.421 6.393 2.131 10.3 2.131s7.459-0.71 10.3-2.131c2.841-1.421 5.328-3.197 7.459-5.683 1.776-2.486 3.552-4.973 4.262-8.169 1.066-3.197 1.421-6.749 1.421-10.3s-0.355-7.104-1.421-10.3zM651.41 481.284c-0.355-0.71-1.776-5.328-2.486-6.749-0.355-0.71-0.71-1.066-1.066-0.71 0 0-1.776 0.355-3.552 0.355-1.066 0-2.841 0-4.262-0.71-1.421-0.355-2.841-1.421-3.907-2.486s-2.131-2.841-2.841-4.617c-0.71-2.131-1.066-5.328-1.066-8.524v-24.153c0-0.71-0.355-1.066-1.066-1.066h-8.524c-0.71 0-1.066 0.355-1.066 1.066v48.305c0 0.71 0.355 1.066 1.066 1.066h8.169c0.71 0 1.066-0.355 1.066-1.066v-3.907c1.066 1.776 3.552 3.197 5.328 3.907 2.131 1.066 4.262 1.421 8.524 1.421 2.131 0 4.973-0.71 5.328-1.066 0 0 0.71-0.355 0.355-1.066zM691.901 434.044c-3.552-1.421-8.524-2.486-13.497-2.486-8.169 0-14.563 2.486-18.825 7.104s-6.393 11.011-6.393 19.18c0 3.552 0.355 7.104 1.421 10.3s2.486 6.038 4.617 8.169c2.131 2.486 4.617 4.262 7.814 5.683s6.749 2.131 10.656 2.131c2.841 0 4.973 0 7.104-0.355s4.973-1.066 6.393-1.776c0.355 0 0.71-0.355 0.71-1.066-1.066-2.486-1.421-4.262-2.486-6.393-0.355-1.066-1.066-0.71-1.066-0.71-3.197 1.066-6.038 1.421-9.945 1.421-4.617 0-8.169-1.421-10.656-4.617s-3.552-7.104-3.552-12.431c0-6.038 1.421-10.3 4.262-13.142 2.486-2.841 6.393-4.262 11.011-4.262 1.776 0 3.552 0 5.328 0.355 1.421 0.355 3.197 0.71 4.617 1.421 0 0 1.066 0.355 1.066-0.71l2.486-6.393c-0.355-1.066-1.066-1.421-1.066-1.421zM739.852 456.065c0-0.71-1.066-0.71-1.066-0.71h-32.322c0.355-4.973 1.421-8.524 3.907-10.656 2.486-2.486 6.038-3.907 11.011-3.907 7.814 0 11.011 1.421 13.142 2.486 0 0 1.066 0.355 1.066-0.71l2.131-6.038c0.355-1.066 0-1.421-0.355-1.421-2.131-1.066-7.104-3.197-16.339-3.197-4.617 0-8.524 0.71-11.721 1.776-3.197 1.421-6.038 3.197-8.169 5.328s-3.552 4.973-4.617 8.169c-1.066 3.197-1.421 6.749-1.421 10.3s0.355 7.104 1.421 10.3c1.066 3.197 2.486 6.038 4.262 8.524 2.131 2.486 4.617 4.262 7.459 5.683s6.749 2.131 10.656 2.131c3.552 0 6.749-0.71 9.235-1.776 2.131-0.71 3.907-2.486 6.038-4.617 1.421-1.421 3.197-4.617 4.262-7.459 2.486-7.814 1.421-13.852 1.421-14.207zM16.694 353.062l11.721-6.038c-1.421-3.197-2.486-6.393-2.841-9.945s0-7.104 0.71-10.656c2.131-8.524 6.393-14.563 12.787-17.049 6.393-2.841 13.852-2.841 23.087-0.71 8.88 2.131 15.273 6.038 19.535 11.721 4.262 5.328 5.328 12.431 3.197 20.956-1.066 3.907-2.841 7.459-4.973 10.3-2.486 2.841-4.973 5.328-8.169 7.459l7.459 11.366c4.262-2.486 8.169-6.038 11.366-10.656 3.552-4.617 6.038-9.945 7.459-15.983 2.131-8.524 2.131-16.339 0.355-23.087-2.131-6.749-5.683-12.787-11.366-17.404s-12.431-8.169-20.601-10.3c-8.524-2.131-16.339-2.486-23.442-1.066s-13.142 4.973-18.114 9.945c-4.973 4.973-8.524 12.076-11.011 20.601-1.421 5.683-1.776 11.011-1.421 16.339 0.71 5.683 2.131 10.3 4.262 14.207zM14.563 485.901l-1.066-36.584 22.022-0.355 0.71 31.256 11.721-0.355-0.71-31.256 23.797-0.71 1.066 38.715 12.431-0.355-1.421-53.988-82.403 2.131 1.421 51.857 12.431-0.355zM108.332 589.26l-31.612-7.459-4.262-13.497 26.639-8.169-4.617-14.563-78.851 24.153 8.524 27.704c2.841 8.88 7.104 15.273 13.497 19.18 6.393 4.262 13.497 4.973 22.022 2.131 11.011-3.552 17.049-11.011 17.759-23.087l35.519 9.59-4.617-15.983zM65.354 584.287c1.421 4.617 1.421 8.524-0.355 12.076-1.421 3.552-4.617 6.038-9.59 7.814-4.973 1.421-9.235 1.066-12.431-1.066s-5.683-5.683-7.104-9.945l-3.907-12.076 29.125-8.88 4.262 12.076zM110.818 743.055l-13.497-20.956 58.606-37.65-8.169-12.787-58.606 37.65-13.497-20.956-10.656 6.749 34.808 54.699 11.011-6.749zM215.598 772.181l7.104 6.749 7.814-8.169-24.863-23.442-7.814 8.169 7.104 6.749-41.202 43.333-7.104-6.749-7.814 8.169 24.863 23.442 7.814-8.169-7.104-6.749 41.202-43.333zM290.897 895.43l-31.967-18.47 11.366-19.89 27.704 15.983 6.393-10.656-27.704-15.983 17.404-29.836-13.142-7.814-41.202 71.392 45.109 25.929 6.038-10.656zM398.873 873.764l9.235 2.841 3.197-11.011-32.677-9.59-3.197 11.011 9.235 2.841-16.694 57.185-9.235-2.841-3.197 10.656 32.677 9.59 3.197-10.656-9.235-2.841 16.694-57.185zM523.188 949.063l-36.584-1.776 1.066-22.022 31.256 1.421 0.355-11.721-31.256-1.421 1.066-23.797 38.715 1.776 0.355-12.431-53.988-2.486-3.552 82.403 51.857 2.131 0.71-12.076zM668.104 896.495c-2.131-8.524-5.683-15.628-10.656-20.601-4.973-5.328-11.011-8.524-17.759-9.945-7.104-1.421-14.918-1.066-23.442 1.066l-27.704 6.749 19.89 79.917 27.349-6.749c13.497-3.197 23.087-9.235 29.125-17.404 5.328-8.524 6.749-19.535 3.197-33.032zM620.154 938.052l-13.852-55.764 11.721-2.841c9.235-2.131 16.694-1.776 22.732 1.776 5.683 3.197 9.945 9.945 12.431 19.535s1.776 17.049-1.776 22.732c-3.552 5.683-9.945 9.59-19.18 11.721l-12.076 2.841zM242.592 82.765c-3.907-4.617-8.524-7.459-13.497-8.88s-9.945-1.066-14.918 0.355c-4.973 1.421-9.235 4.262-13.497 7.814l-10.656 9.59-17.759-19.89-11.366 9.945 54.343 61.802 22.377-19.535c7.104-6.038 11.011-12.787 12.431-19.89 1.066-7.104-1.421-14.207-7.459-21.311zM218.439 124.322l-20.601-23.442 9.945-8.524c3.552-3.197 7.459-4.973 11.721-4.973 4.262-0.355 7.814 1.776 11.366 5.683 3.552 4.262 4.973 8.169 4.262 12.076s-2.841 7.459-6.749 10.656l-9.945 8.524zM314.339-21.304l-2.841 32.322-12.431 6.038-12.076-25.218-13.852 6.393 35.163 74.589 25.929-12.431c8.169-3.907 14.207-9.235 17.049-15.983 3.197-6.749 2.841-14.207-1.066-22.022-4.973-10.656-13.497-15.273-25.218-14.563l4.617-36.229-15.273 7.104zM315.76 22.029c4.262-2.131 8.169-2.486 12.076-1.421s6.749 3.907 8.88 8.524c2.131 4.617 2.486 8.88 0.71 12.431s-4.617 6.393-8.88 8.524l-11.366 5.328-13.142-27.704 11.721-5.683zM407.753-11.004c1.421 8.524 3.907 15.628 8.169 21.666s9.945 10.3 16.694 13.142c6.749 2.486 14.563 3.197 23.087 2.131 8.524-1.421 15.983-4.262 21.666-8.524 5.683-4.617 9.945-10.3 12.076-17.049 2.486-7.104 2.841-14.563 1.776-23.087-1.421-8.524-3.907-15.628-8.169-21.666s-9.945-10.3-16.694-13.142c-6.749-2.486-14.563-3.197-23.087-2.131-8.524 1.421-15.983 4.262-21.666 8.524-5.683 4.617-9.945 10.3-12.076 17.049-2.486 7.104-3.197 14.563-1.776 23.087zM475.593-20.594c1.421 9.235 0.355 16.694-3.552 22.732-3.552 6.038-9.945 9.59-18.47 11.011s-15.628-0.355-20.956-5.328c-5.328-4.617-8.524-11.721-9.945-20.956s-0.355-16.694 3.552-22.732c3.552-6.038 9.945-9.59 18.47-11.011 8.88-1.421 15.628 0.355 20.956 5.328 5.328 4.617 8.524 11.721 9.945 20.956zM608.433 15.28l-36.584-5.328 3.197-22.732 31.612 4.617 1.776-12.431-31.612-4.617 4.973-34.098-15.273-2.131-11.721 81.693 51.502 7.459 2.131-12.431zM713.568 52.575l-33.743-14.207 8.524-20.246 28.77 12.076 4.617-10.656-28.77-12.076 9.235-22.022 35.519 14.918 4.973-11.366-49.726-20.956-31.967 76.010 47.95 20.246 4.617-11.721zM799.878 30.908v12.076c3.907 0 7.459 0.71 11.011 2.131 3.197 1.421 6.393 3.197 9.59 5.683 3.907 2.841 6.393 6.038 7.459 9.59s0.355 6.749-2.131 9.945c-1.776 2.486-3.907 3.907-6.038 4.262s-4.617 0.355-7.459-0.355c-2.841-0.71-6.393-2.131-10.656-3.907-7.104-3.197-13.142-4.262-18.47-3.552s-9.945 3.552-13.852 8.524c-2.841 3.907-4.617 7.814-4.617 12.431 0 4.262 1.066 8.524 3.197 12.787 2.486 4.262 5.683 7.814 9.945 11.366 7.814 6.038 16.694 9.59 25.929 9.945l0.71-12.076c-3.907-0.355-7.104-1.066-10.3-2.486-2.841-1.066-6.038-2.841-8.524-4.973-3.552-2.486-5.683-5.328-6.749-8.524-1.066-2.841-0.355-5.683 1.421-8.169 2.131-2.841 4.617-3.907 7.814-3.552s7.814 1.776 13.497 3.907c7.814 3.197 14.207 4.617 20.246 4.262 5.683-0.355 11.011-3.552 15.628-9.59 3.552-4.262 5.328-8.88 5.328-13.852s-1.066-9.235-3.552-13.852c-2.486-4.262-6.393-8.524-10.656-12.076s-8.88-6.038-13.852-7.459c-4.973-2.131-9.945-2.841-14.918-2.486zM897.554 118.284l-3.197 11.721c3.907 1.066 7.104 2.841 9.945 4.617 2.841 2.131 5.328 4.617 7.814 7.814 2.841 3.907 4.617 7.459 4.617 11.011s-1.421 6.393-4.617 8.88c-2.486 1.776-4.617 2.486-6.749 2.486s-4.617-0.71-7.104-2.131c-2.486-1.421-5.683-3.552-9.235-6.393-6.038-4.617-11.721-7.459-17.049-8.169s-10.656 0.71-15.628 4.617c-3.907 2.841-6.393 6.393-7.814 10.656-1.066 4.262-1.066 8.524 0 13.142s3.552 8.88 6.749 13.497c6.038 8.169 13.497 13.497 22.732 16.339l3.552-11.366c-3.552-1.421-6.749-2.841-9.235-4.973-2.486-1.776-4.973-4.262-7.104-7.104-2.486-3.552-3.907-6.749-4.262-9.945s1.066-5.683 3.552-7.814c2.841-2.131 5.683-2.486 8.524-1.421s7.104 3.552 12.076 7.459c6.393 5.328 12.787 8.169 18.47 9.235s11.366-0.71 17.404-5.328c4.262-3.552 7.459-7.459 8.524-11.721 1.421-4.617 1.421-9.235 0-14.207s-3.907-9.59-7.459-14.207c-3.197-4.262-7.104-7.814-11.366-10.656-3.907-3.197-8.524-4.973-13.142-6.038zM974.984 251.834l3.907 8.88 10.656-4.617-13.852-31.256-10.656 4.617 3.907 8.88-54.699 24.153-3.907-8.88-10.3 4.617 13.852 31.256 10.3-4.617-3.907-8.88 54.699-24.153zM972.498 333.882c-8.524 1.421-15.628 3.907-21.666 8.169s-10.3 9.945-12.787 16.694c-2.486 6.749-3.197 14.563-2.131 23.087 1.421 8.524 4.262 15.983 8.88 21.666s10.3 9.945 17.049 12.076c7.104 2.486 14.563 2.841 23.087 1.421s15.628-3.907 21.666-8.169c6.038-4.262 10.3-9.945 12.787-16.694s3.197-14.563 2.131-23.087c-1.421-8.524-4.262-15.983-8.524-21.666-4.617-5.683-10.3-9.59-17.049-12.076-7.104-2.131-14.918-2.841-23.442-1.421zM982.798 401.722c-9.235 1.421-16.694 0.355-22.732-3.197s-9.59-9.945-11.011-18.47c-1.421-8.524 0.355-15.628 4.973-20.956s11.721-8.524 20.956-9.945 16.694-0.355 22.732 3.197c6.038 3.552 9.59 9.59 11.011 18.47s-0.355 15.628-4.973 20.956c-4.617 5.328-11.721 8.524-20.956 9.945zM943.018 480.928l-2.841 17.049 53.633 50.436v0.355l-60.382-10.656-2.486 13.852 81.337 13.852 2.841-17.049-53.988-50.436v-0.355l60.737 10.656 2.486-13.852-81.337-13.852zM947.28 681.253l15.273-29.836 18.825 2.131 7.104-14.207-87.731-8.88-7.104 13.852 59.316 65.354 7.459-14.563-13.142-13.852zM950.121 649.997l-11.366 22.732-27.704-28.060 39.070 5.328zM888.319 773.246l-23.797 26.284 9.235 8.524 34.098-37.65-61.092-55.409-10.3 11.366 51.857 46.884zM764.359 854.228c3.197-1.776 5.328-4.262 6.393-6.749 1.066-2.841 0.355-6.038-1.776-9.945-3.907-7.104-9.59-8.88-16.694-4.973s-8.524 9.59-4.617 16.694c4.262 7.104 9.59 8.88 16.694 4.973zM121.473 211.343c3.197-1.776 5.328-4.262 6.393-6.749 1.066-2.841 0.355-6.038-1.776-9.945-3.907-7.104-9.59-8.88-16.694-4.973s-8.524 9.59-4.617 16.694c4.262 7.104 9.59 8.88 16.694 4.973z" />
<glyph unicode="&#xe93d;" glyph-name="sfdc-icon-social-blog" horiz-adv-x="1023" d="M511.467 961.85c-282.373 0-511.467-229.095-511.467-511.467s229.095-511.467 511.467-511.467 511.467 229.095 511.467 511.467c0 135.681-53.988 265.679-149.888 361.579-95.9 96.255-225.898 149.888-361.579 149.888v0zM398.163 277.052c-33.387 0-60.382 26.994-60.382 60.382s26.994 60.382 60.382 60.382c33.387 0 60.382-26.994 60.382-60.382s-26.994-60.382-60.382-60.382v0zM534.554 337.433c0 75.299-61.092 136.391-136.391 136.391v75.299c116.856-0.355 211.691-94.835 211.691-211.691h-75.299zM685.863 337.433c-0.355 158.768-128.932 286.99-287.345 287.345v75.299c200.325-0.355 362.644-162.675 362.644-362.644h-75.299z" />
<glyph unicode="&#xe93e;" glyph-name="sflive-keynote" horiz-adv-x="1023" d="M712.502 66.782h-401.715c-20.246 0-36.584-16.339-36.584-36.584s16.339-36.584 36.584-36.584h401.715c20.246 0 36.584 16.339 36.584 36.584s-16.339 36.584-36.584 36.584zM954.384 907.151h-885.833c-38.005 0-68.551-30.546-68.551-68.551v-630.099c0-37.65 30.546-68.551 68.551-68.551h885.833c37.65 0 68.551 30.546 68.551 68.551v630.099c0 38.005-30.546 68.551-68.551 68.551zM949.766 286.287h-876.953v547.696h876.953v-547.696z" />
<glyph unicode="&#xe93f;" glyph-name="sflive-productkeynote" horiz-adv-x="1023" d="M0 162.682h127.867v-191.8l191.8 191.8h511.467v575.401h-831.134v-575.401zM191.8 929.883v-127.867h703.267v-511.467h127.867v639.334h-831.134z" />
<glyph unicode="&#xe940;" glyph-name="sflive-session" horiz-adv-x="1023" d="M411.305 380.411h8.88c-2.486 2.131-4.973 3.907-6.749 6.038-69.972 63.223-123.249 185.762-123.249 284.859 0 140.298 114.725 232.647 223.412 232.647 108.332 0 217.374-99.807 217.374-240.105 0-99.097-58.961-218.084-131.774-278.821 14.918-57.185 96.966-76.010 266.389-122.184 187.893-51.502 155.571-179.369 155.216-265.324h-1015.12c-0.71 85.955-47.24 213.467 141.009 265.324 164.451 44.753 246.499 63.933 264.613 117.566zM420.185 380.411h-8.88c0.71 2.131 1.421 3.907 1.776 6.038 2.131-2.131 4.617-4.262 7.104-6.038z" />
<glyph unicode="&#xe941;" glyph-name="sfdc-icon-product-e-commerce" horiz-adv-x="1023" d="M562.614 632.593c0 38.36-14.207 64.289-43.688 79.206-1.776 0.71-3.197 1.776-4.973 2.486-13.852-7.104-24.508-18.114-32.322-33.387-12.076-23.442-12.431-47.95-12.431-48.305v-61.447c0-1.066 1.066-2.131 2.131-2.131h89.152c1.066 0 2.131 1.066 2.131 2.131v60.737c0 0 0 0.355 0 0.355s0 0.355 0 0.355v0zM653.186 632.593c0 27.349-7.814 49.371-23.087 64.644-18.47 18.114-43.688 24.153-58.25 25.929 21.311-23.087 32.322-53.278 32.322-90.572v-61.447c0-1.066 1.066-2.131 2.131-2.131h44.753c1.066 0 2.131 1.066 2.131 2.131v60.737c0 0 0 0.355 0 0.355s0 0.355 0 0.355v0zM378.628 632.948v-61.447c0-1.066 1.066-2.131 2.131-2.131h44.753c1.066 0 2.131 1.066 2.131 2.131v61.092c0 2.131 0.355 52.923 33.032 91.283-23.087-1.421-41.557-9.235-55.054-22.732-26.284-26.284-26.994-67.84-26.994-68.196zM511.467 962.205c-282.373 0-511.467-229.095-511.467-511.467s229.095-511.467 511.467-511.467 511.467 229.095 511.467 511.467-229.095 511.467-511.467 511.467zM761.518 245.085c0-34.453-28.060-62.157-62.157-62.157h-416.277c-11.721 0-21.311 9.59-21.311 21.311v18.825c0 1.066 1.066 2.131 2.131 2.131l434.037 0.355c11.366 0 20.601 9.235 20.601 20.601v278.11c0 1.066-1.066 2.131-2.131 2.131h-110.463c-1.066 0-2.131-1.066-2.131-2.131v-18.47c0-12.076-9.945-21.666-22.022-20.601-11.011 0.71-19.535 10.3-19.535 21.311v17.759c0 1.066-1.066 2.131-2.131 2.131h-179.724c-1.066 0-2.131-1.066-2.131-2.131v-18.47c0-12.076-9.945-21.666-22.022-20.601-11.011 0.71-19.535 10.3-19.535 21.311v17.759c0 1.066-1.066 2.131-2.131 2.131h-28.415c-1.066 0-2.131-1.066-2.131-2.131v-254.313c0-1.066-1.066-2.131-2.131-2.131h-38.005c-1.066 0-2.131 1.066-2.131 2.131v277.755c0 11.721 9.59 21.311 21.311 21.311h51.857c1.066 0 2.131 1.066 2.131 2.131v61.447c0 2.486 0.355 58.961 39.070 98.031 23.442 23.442 54.699 35.163 93.769 35.163 0.355 0 0.355 0 0.71 0 1.421 0 19.535 0 42.622-7.104 14.207 4.617 30.191 7.104 47.24 7.104 0.355 0 0.355 0 0.71 0 3.552 0 59.316-0.71 98.031-39.070 23.442-23.442 35.163-55.054 35.163-93.769v-61.447c0-1.066 1.066-2.131 2.131-2.131h43.333c11.721 0 21.311-9.59 21.311-21.311v-302.973z" />
<glyph unicode="&#xe942;" glyph-name="sfdc-icon-einstein-mobius" horiz-adv-x="1023" d="M710.016 598.14c45.109 0 81.337 36.584 81.337 81.337 0 45.109-36.584 81.337-81.337 81.337-45.109 0-81.337-36.584-81.337-81.337s36.584-81.337 81.337-81.337zM710.016 716.772c20.601 0 37.294-16.694 37.294-37.294s-16.694-37.294-37.294-37.294c-20.601 0-37.294 16.694-37.294 37.294 0.355 20.601 17.049 37.294 37.294 37.294zM826.517 710.378c-5.683 0.71-11.011-3.197-11.721-8.88s3.197-11.011 8.88-11.721c103.004-13.852 180.434-102.649 180.434-206.718 0-115.080-93.414-208.494-208.494-208.494-3.197 0-6.749 0-9.945 0.355 15.983 26.639 24.508 56.475 24.863 87.020 2.841 83.113-22.377 157.347-40.491 211.335l-1.776 5.328c-1.776 5.328-7.814 8.524-13.142 6.749s-8.524-7.814-6.749-13.142l1.776-5.328c17.759-52.567 42.267-125.025 39.426-204.232v-0.355c0-30.191-9.945-59.316-26.994-84.179-45.109 9.945-99.097 43.688-143.85 133.55-1.776 3.907-27.704 60.737-68.906 135.326 21.666 22.377 44.753 44.043 69.972 64.289 4.617 3.552 5.328 10.3 1.421 14.563-3.552 4.617-10.3 5.328-14.563 1.421-24.153-19.535-46.529-40.136-67.485-61.447-21.666 38.005-46.529 79.562-74.234 120.763-6.393 10.3-13.852 20.601-22.022 30.546 37.294 36.229 64.999 45.819 112.949 45.819 23.797 0 45.819-4.262 65.709-12.076 5.328-2.131 11.366 0.355 13.497 5.683s-0.355 11.366-5.683 13.497c-22.377 9.235-47.24 13.852-73.523 13.852-56.119 0-88.441-13.497-126.801-50.792-41.557 43.688-100.873 79.562-168.358 73.168-23.442-2.131-45.464-7.814-65.354-15.983-6.749 6.749-15.983 11.011-26.284 11.011-20.601 0-37.294-16.694-37.294-37.294 0-4.617 1.066-9.235 2.486-13.142-38.36-36.584-60.737-88.796-60.737-149.888 0-17.404 3.197-34.808 8.169-51.147-10.656-8.88-20.956-19.535-29.836-30.901-30.901-39.426-48.66-90.572-48.66-139.588 0-99.452 80.982-180.434 180.434-180.434 8.169 0 16.339 0.71 24.508 1.776 31.612-66.775 99.452-112.949 177.948-112.949 80.627 0 143.85 38.005 172.975 98.031 20.956-2.486 42.267-3.907 63.578-3.907 47.595 0 95.545 19.18 131.063 52.567 6.749 6.393 13.142 13.142 18.825 20.601 7.814-1.066 15.628-1.421 23.797-1.421 126.446 0 229.45 103.004 229.45 229.45-0.71 114.37-85.955 212.046-199.259 227.319zM447.179 675.215c28.77-42.622 54.699-85.955 76.72-125.025-17.759-18.825-34.098-38.005-49.726-57.185-2.486 2.131-4.617 3.907-7.104 5.683-6.749 6.749-55.764 53.988-138.878 79.206 22.022 31.612 47.595 64.999 78.141 100.162 7.814 8.88 14.918 17.049 21.666 24.508 7.104-8.88 13.497-18.114 19.18-27.349v0zM545.21 208.856c-70.682 11.011-139.233 36.939-203.521 77.075 14.207 16.694 28.415 35.163 43.333 54.699 3.907-1.421 8.169-2.486 12.787-2.486 20.601 0 37.294 16.694 37.294 37.294 0 8.524-2.841 16.339-7.459 22.377 15.628 20.956 31.612 42.622 48.66 64.289 46.174-50.081 78.496-137.812 78.496-195.707 0-20.956-3.552-40.136-9.59-57.54zM209.204 394.973c-26.284 27.704-51.502 57.895-74.944 90.928-9.945 14.918-20.601 34.808-28.77 56.83 23.087 16.339 49.016 25.929 76.365 27.704h0.355c13.142 1.421 25.929 2.131 38.36 2.131 26.284 0 51.147-2.841 73.523-7.814-34.453-52.923-65.354-110.818-84.889-169.779zM315.405 559.424c86.665-24.508 136.391-74.944 137.102-75.655l1.421-1.421c2.486-1.776 4.617-3.552 7.104-5.683-17.759-22.377-34.453-44.753-50.436-66.42-3.907 1.421-8.169 2.131-12.787 2.131-20.601 0-37.294-16.694-37.294-37.294 0-8.524 2.841-15.983 7.459-22.377-15.273-20.246-29.836-39.070-44.398-55.764-34.098 22.732-66.775 49.726-98.031 80.627 15.628 50.792 42.977 111.173 89.862 181.855zM93.769 600.981c0 49.726 15.983 93.769 46.174 126.801 2.131 2.131 4.262 4.617 6.393 6.749 6.038-4.617 13.852-7.104 22.022-7.104 20.601 0 37.294 16.694 37.294 37.294 0 2.486-0.355 4.973-0.71 7.459 17.759 7.104 36.939 11.721 57.54 13.497 4.617 0.355 9.235 0.71 13.852 0.71 54.699 0 103.004-30.901 137.812-67.84-7.459-8.169-15.273-17.049-23.797-26.639-27.349-31.612-56.119-68.196-83.469-107.976-36.584 8.524-78.851 12.787-126.446 7.459-28.77-2.131-56.475-11.721-81.337-27.704-3.197 12.431-5.328 25.218-5.328 37.294zM182.565 219.867c-87.731 0-159.478 71.392-159.478 159.478 0 44.753 15.983 90.928 44.398 126.801 6.393 8.169 13.497 15.983 20.956 22.732 11.011-27.349 24.508-48.305 28.77-54.699 26.639-37.294 55.409-71.392 85.245-101.938-7.814-28.77-13.142-57.895-14.207-87.020v-0.355c0-22.377 3.907-43.688 10.656-63.933-5.328-0.71-11.011-1.066-16.339-1.066zM209.204 284.511c0.71 20.246 3.907 43.688 10.656 70.682 28.77-27.704 58.961-52.212 90.217-73.168-12.787-13.497-25.573-25.218-38.36-34.808-15.983-10.656-33.387-18.47-51.502-22.732-7.104 18.47-11.011 38.715-11.011 60.026zM385.021 108.694c-68.196 0-127.512 39.070-156.637 96.255 19.535 4.973 38.005 13.497 55.054 24.863l0.355 0.355c14.918 11.011 29.48 24.508 44.043 40.136 65.709-41.557 136.036-68.906 208.849-80.982-26.994-50.436-81.337-80.627-151.664-80.627zM621.575 202.818c-18.47 0-37.294 1.066-55.409 3.197 6.038 18.47 9.59 38.715 9.59 60.382 0 63.223-34.453 158.058-86.31 212.401 14.207 17.759 29.48 35.163 45.109 52.567 40.136-72.813 64.644-127.156 64.999-128.222l0.355-0.355c38.715-77.43 89.152-125.736 148.468-142.429-31.612-34.808-77.43-57.54-126.801-57.54z" />
<glyph unicode="&#xe943;" glyph-name="sfdc-icon-left-arrow" horiz-adv-x="1023" d="M787.446-2.834c4.617-4.617 4.617-12.787 0-17.404l-35.519-35.519c-4.973-4.973-12.787-4.973-17.759 0l-497.615 497.615c-4.973 4.973-4.973 12.787 0 17.759l497.615 497.615c4.973 4.973 12.787 4.973 17.759 0l35.519-35.519c4.973-4.973 4.973-12.787 0-17.759l-444.337-444.692c-4.973-4.973-4.973-12.787 0-17.759l444.337-444.337z" />
<glyph unicode="&#xe944;" glyph-name="sfdc-icon-social-wechat-inverted" horiz-adv-x="1023" d="M710.726 601.691c-94.835-4.973-177.593-33.743-244.723-98.742-67.84-65.709-98.742-146.336-90.217-246.144-36.939 4.617-71.037 9.59-104.78 12.431-11.721 1.066-25.573-0.355-35.519-6.038-33.032-18.47-64.644-39.781-102.293-63.223 6.749 31.256 11.366 58.25 19.18 84.534 5.683 19.18 3.197 29.836-14.563 42.622-114.015 80.627-161.965 201.035-126.091 324.995 33.387 114.725 115.080 184.341 225.898 220.57 151.664 49.371 321.798-1.066 413.791-121.118 33.387-43.688 53.988-92.348 59.316-149.888v0zM273.848 640.052c0.71 22.732-18.825 42.977-42.267 43.688-23.797 0.71-43.688-17.404-44.398-41.202s17.404-42.977 41.557-43.688c24.153-0.355 44.043 18.114 45.109 41.202v0zM501.522 684.095c-23.442-0.355-43.333-20.246-42.977-42.977 0.355-23.442 19.89-41.912 44.043-41.912 24.153 0.355 42.622 18.825 42.267 42.977 0 23.442-19.18 42.267-43.333 41.912zM924.193 9.597c-30.191 13.497-57.54 33.387-87.020 36.584-29.125 3.197-60.026-13.852-90.572-17.049-93.059-9.59-176.882 16.339-245.433 80.272-131.063 121.118-112.239 306.88 39.426 406.332 134.615 88.086 332.099 58.961 427.288-63.578 82.758-106.911 73.168-248.63-28.060-338.492-29.125-25.929-39.781-47.24-20.956-81.693 2.841-6.393 3.197-14.563 5.328-22.377v0zM581.794 340.985c19.18 0 34.808 14.918 35.519 33.743 0.71 19.89-15.273 36.939-35.519 36.939-19.89 0-36.584-17.049-35.874-36.584 1.066-18.825 16.694-34.098 35.874-34.098v0zM802.364 411.667c-18.47 0-34.453-14.918-35.163-33.743-0.71-19.89 14.918-36.584 34.808-36.584 19.18 0 34.453 14.563 35.163 33.743 0.71 19.89-14.918 36.229-34.808 36.584z" />
<glyph unicode="&#xe945;" glyph-name="sfdc-icon-social-wechat" horiz-adv-x="1023" d="M559.062 424.099c-13.497 0-24.863-11.721-24.508-24.863 0.71-12.787 11.366-23.087 24.508-23.087s23.797 10.3 24.153 23.087c0.71 13.142-10.3 24.863-24.153 24.863zM709.306 424.099c-12.431 0-23.442-10.3-23.797-23.087-0.355-13.497 10.3-24.863 23.797-24.863 13.142 0 23.442 9.945 23.797 23.087 0.355 13.497-10.3 24.508-23.797 24.863zM505.074 551.61c16.339 0.355 29.125 12.787 28.77 29.125 0 15.983-13.142 28.77-29.48 28.415-15.983-0.355-29.48-13.852-29.125-29.125 0.355-15.628 13.497-28.415 29.836-28.415zM511.467 962.915c-282.373 0-511.467-229.095-511.467-511.467s229.095-511.467 511.467-511.467 511.467 229.095 511.467 511.467c0 282.728-229.095 511.467-511.467 511.467zM347.371 327.133c-7.814 0.71-17.404-0.355-24.153-4.262-22.377-12.431-44.043-26.994-69.616-42.977 4.617 21.311 7.814 39.781 13.142 57.54 3.907 13.142 2.131 20.246-9.945 29.125-77.786 55.054-110.108 136.746-85.955 221.281 22.732 78.141 78.496 125.381 153.795 150.243 103.359 33.743 219.149-0.71 281.662-82.403 22.732-29.836 36.584-62.868 40.491-101.938-64.644-3.552-120.763-23.087-166.582-67.13-46.174-44.753-67.13-99.807-61.447-167.648-25.218 2.841-48.305 6.393-71.392 8.169zM802.719 221.288c-19.89-17.759-26.994-32.322-14.207-55.764 1.776-4.262 2.131-9.945 3.552-15.273-20.601 9.235-39.070 22.732-59.316 24.863-19.89 2.131-40.846-9.59-61.802-11.721-63.223-6.393-120.408 11.011-166.937 54.699-89.152 82.403-76.365 208.849 26.994 276.69 91.638 60.026 226.253 40.136 290.897-43.333 56.475-72.458 50.081-169.068-19.18-230.16zM320.733 609.506c-16.339 0.355-29.836-11.721-30.191-28.060s11.721-29.125 28.415-29.836c16.339-0.355 29.836 12.431 30.546 28.060 0.355 15.273-12.787 29.125-28.77 29.836z" />
<glyph unicode="&#xe946;" glyph-name="sfdc-icon-social-xing-inverted" horiz-adv-x="1023" d="M155.571 756.908c-8.88 0-16.339-3.197-20.246-9.235-3.907-6.393-3.197-14.563 0.71-22.732l99.807-172.62v-0.71l-156.637-276.69c-4.262-8.169-3.907-16.339 0-22.732 3.907-6.038 10.3-9.945 19.18-9.945h147.402c22.022 0 32.677 14.918 40.136 28.415 0 0 153.44 271.007 159.123 281.662-0.71 1.066-101.583 176.882-101.583 176.882-7.459 13.142-18.47 27.704-41.202 27.704h-146.692zM775.37 959.008c-22.022 0-31.612-13.852-39.426-28.060 0 0-317.891-563.68-328.191-582.149 0.71-1.066 209.559-384.666 209.559-384.666 7.459-13.142 18.47-28.060 41.202-28.060h147.402c8.88 0 15.983 3.197 19.535 9.59 3.907 6.393 3.907 14.563-0.355 22.732l-208.139 380.049v1.066l326.771 577.532c4.262 8.169 4.262 16.339 0.355 22.732-3.907 6.038-10.656 9.59-19.535 9.59l-149.178-0.355z" />
<glyph unicode="&#xe947;" glyph-name="sfdc-icon-social-xing" horiz-adv-x="1023" d="M515.019 962.915c-282.373 0-511.467-229.095-511.467-511.467s229.095-511.467 511.467-511.467 511.467 229.095 511.467 511.467c0 282.728-229.095 511.467-511.467 511.467zM349.147 325.002h-90.217c-5.328 0-9.235 2.486-11.721 6.038-2.486 3.907-2.486 8.88 0 13.852l95.9 169.068v0.355l-61.092 105.49c-2.486 4.973-2.841 9.945-0.355 13.852 2.486 3.552 7.104 5.683 12.431 5.683h89.507c13.852 0 20.601-8.88 25.218-17.049 0 0 61.802-107.621 62.157-107.976-3.552-6.393-97.321-172.265-97.321-172.265-4.617-7.814-11.366-17.049-24.508-17.049zM775.725 743.411l-199.614-353.054v-0.71l127.156-232.291c2.486-4.973 2.486-9.945 0.355-13.852s-6.393-6.038-12.076-6.038h-90.217c-13.852 0-20.601 9.235-25.218 17.049 0 0-127.512 234.422-128.222 235.133 6.393 11.366 200.68 355.896 200.68 355.896 4.617 8.524 10.656 17.049 24.153 17.049l91.283 0.355c5.328 0 9.59-2.131 12.076-6.038 2.131-3.197 2.131-8.169-0.355-13.497z" />
<glyph unicode="&#xe948;" glyph-name="sfdc-icon-download" horiz-adv-x="1023" d="M511.467 962.56c-282.728 0-511.822-229.45-511.822-511.822s229.095-512.178 511.822-512.178 511.822 229.45 511.822 511.822-229.095 512.178-511.822 512.178zM415.922 508.988v158.058h191.090v-158.058h116.146l-211.335-185.407-211.335 185.407h115.435zM762.583 273.5v-39.426h-501.877v114.015h39.426v-74.589h423.026v74.589h39.426v-74.589z" />
<glyph unicode="&#xe949;" glyph-name="sfdc-icon-email" horiz-adv-x="1023" d="M511.467 962.56c-282.728 0-511.822-229.45-511.822-511.822s229.45-512.178 511.822-512.178 511.822 229.45 511.822 511.822-229.095 512.178-511.822 512.178zM248.985 631.172h524.964c-1.776-0.71-3.197-1.776-4.973-2.486l-257.865-180.789-258.93 180.789c-1.066 0.71-1.776 1.421-3.197 1.776v0.71zM248.985 572.211l144.916-100.873-144.916-164.451v265.324zM281.307 269.593l152.375 173.686 64.289-44.753c1.066-0.71 1.776-1.066 2.841-1.776 0 0 0.355-0.355 0.71-0.355 0.71-0.355 1.776-0.71 2.131-1.066 0.71 0 1.066-0.355 1.421-0.355 1.066 0 1.776-0.355 2.131-0.355 0.71-0.355 1.066-0.355 1.421-0.355 1.066-0.355 1.776-0.355 2.841-0.355 1.421 0 2.131 0.355 3.197 0.355 0.71 0.355 1.066 0.355 1.421 0.355 1.066 0.355 1.776 0.355 2.131 0.71 0.71 0 1.066 0.355 1.421 0.355 0.71 0.355 1.776 0.71 2.131 1.066 0.355 0 0.355 0.355 0.71 0.355 1.066 0.71 1.776 1.421 2.841 1.776l63.933 44.753 153.085-174.396h-461.031zM773.949 306.532l-144.916 164.806 144.916 101.938v-266.744z" />
<glyph unicode="&#xe94a;" glyph-name="sfdc-icon-product-industries-comms-media" horiz-adv-x="1023" d="M560.838 343.472l-32.677 75.655c-0.71 1.776-2.486 2.841-4.262 2.841h-29.48c-1.776 0-3.552-1.066-4.262-2.841l-33.387-76.72c-0.71-1.776-0.355-4.262 1.421-5.683l47.95-37.65c1.776-1.421 4.262-1.421 5.683 0l47.95 38.715c1.066 1.421 1.776 3.907 1.066 5.683zM583.57 290.194c-1.066 2.841-4.973 3.552-7.104 1.776l-25.929-20.956c-2.486-1.776-2.486-5.328 0-7.104l53.633-43.333c3.907-3.197 9.235 1.066 7.104 5.328l-27.704 64.289zM466.714 270.659l-26.284 20.601c-2.486 1.776-6.038 1.066-7.104-1.776l-27.704-64.289c-1.776-4.617 3.552-8.524 7.104-5.328l53.988 43.688c2.486 1.776 2.486 5.328 0 7.104zM511.467 961.85c-282.373 0-511.467-228.74-511.467-511.112s229.095-511.467 511.467-511.467c282.373 0 511.467 229.095 511.467 511.467s-229.095 511.112-511.467 511.112zM615.892 667.046c-1.776 1.776-1.776 4.617 0 6.393l26.284 26.284c1.776 1.776 4.973 1.776 6.749 0 33.743-35.519 52.212-81.693 52.212-130.708s-18.47-95.19-52.212-130.708c-1.776-1.776-4.973-1.776-6.749 0l-26.284 26.284c-1.776 1.776-1.776 4.617 0 6.393 25.218 26.639 38.715 61.447 38.715 98.031s-13.497 71.037-38.715 98.031zM511.467 615.544c25.573 0 46.529-20.956 46.529-46.529s-20.956-46.529-46.529-46.529-46.529 20.956-46.529 46.529c0 25.573 20.956 46.529 46.529 46.529zM380.404 699.723l26.284-26.284c1.776-1.776 1.776-4.617 0-6.393-25.218-26.639-38.715-61.447-38.715-98.031s13.852-71.392 38.715-98.031c1.776-1.776 1.776-4.617 0-6.393l-26.284-26.284c-1.776-1.776-4.973-1.776-6.749 0-33.743 35.519-52.212 81.693-52.212 130.708s18.825 95.19 52.567 130.708c1.776 1.776 4.617 2.131 6.393 0zM289.831 354.127c-56.119 57.895-87.376 133.905-87.376 214.887s30.901 156.992 87.376 214.887c1.776 1.776 4.973 1.776 6.749 0l26.284-26.284c1.776-1.776 1.776-4.617 0-6.393-47.595-49.016-73.523-113.659-73.523-182.21 0-69.972 27.349-135.681 77.075-185.407l-29.48-29.48c-2.131-2.131-5.328-2.131-7.104 0zM700.071 121.125h-45.464c-1.066 0-2.131 0.355-2.841 1.066l-139.943 112.949c-1.776 1.421-4.262 1.421-5.683 0l-140.298-112.949c-0.71-0.71-1.776-1.066-2.841-1.066h-45.819c-3.197 0-5.683 3.552-4.262 6.393l146.336 338.492c0.71 1.776 2.486 2.841 4.262 2.841h90.572c1.776 0 3.552-1.066 4.262-2.841l145.626-338.492c1.776-3.197-0.71-6.393-3.907-6.393zM733.103 354.127c-1.776-1.776-4.973-1.776-6.749 0l-26.284 26.284c-1.776 1.776-1.776 4.617 0 6.393 47.595 49.016 73.523 113.659 73.523 182.21s-26.284 132.839-73.523 182.21c-1.776 1.776-1.776 4.617 0 6.393l26.284 26.284c1.776 1.776 4.973 1.776 6.749 0 56.119-57.895 87.376-133.905 87.376-214.887s-31.256-156.992-87.376-214.887z" />
<glyph unicode="&#xe94b;" glyph-name="sfdc-icon-product-industries-life-sciences" horiz-adv-x="1023" d="M362.289 652.128c0 33.743-27.349 61.092-61.092 61.092s-61.092-27.349-61.092-61.092c0-33.743 27.349-61.092 61.092-61.092 12.787 0 24.863 3.907 34.453 10.656 0.355 0.355 0.71 0.355 1.066 0.71 15.628 11.721 25.573 29.48 25.573 49.726zM264.613 225.905c0-33.743 27.349-61.092 61.092-61.092s61.092 27.349 61.092 61.092c0 9.235-2.131 17.759-5.683 25.573l-11.011-14.563c-4.973-6.393-12.076-9.59-19.18-9.59-5.328 0-10.3 1.776-14.918 4.973-10.656 8.169-12.787 23.442-4.617 34.098l13.142 17.049c-6.038 1.776-12.076 2.841-18.825 2.841-33.743 0.355-61.092-26.994-61.092-60.382zM513.243 959.719c-282.373 0-511.467-229.095-511.467-511.467s229.095-511.467 511.467-511.467 511.467 229.095 511.467 511.467-229.095 511.467-511.467 511.467zM776.436 237.981c-67.13 0-121.829 54.699-121.829 121.829 0 5.328 0.355 10.3 1.066 15.273l-50.081 16.339c-19.89-40.136-61.447-68.196-109.397-68.196-18.114 0-35.519 3.907-51.147 11.366l-32.322-42.267c14.207-18.47 22.732-41.557 22.732-66.775 0-60.382-49.016-109.752-109.752-109.752-60.382 0-109.752 49.016-109.752 109.752 0 60.382 49.016 109.752 109.752 109.752 17.759 0 34.453-4.262 49.371-11.721l30.546 39.781c-19.535 21.666-31.256 50.081-31.256 81.693 0 23.797 6.749 45.819 18.825 64.644l-46.174 42.622c-13.852-6.393-29.48-9.945-45.819-9.945-60.382 0-109.752 49.016-109.752 109.752 0 60.382 49.016 109.752 109.752 109.752 60.382 0 109.752-49.016 109.752-109.752 0-26.284-9.235-50.436-24.863-69.261l40.491-37.65c19.89 13.852 43.688 21.666 69.616 21.666 67.13 0 121.829-54.699 121.829-121.829 0-2.131 0-4.262-0.355-6.749l53.278-17.404c21.311 36.229 60.382 60.382 105.135 60.382 67.13 0 121.829-54.699 121.829-121.829s-54.343-121.473-121.473-121.473zM776.436 432.978c-40.136 0-73.168-32.677-73.168-73.168 0-40.136 32.677-73.168 73.168-73.168 40.136 0 73.168 32.677 73.168 73.168s-33.032 73.168-73.168 73.168zM516.44 428.716c-4.973-5.328-11.366-7.814-17.759-7.814-6.038 0-11.721 2.131-16.694 6.393l-52.212 48.66c-4.262-9.235-6.749-19.535-6.749-30.546 0-40.136 32.677-73.168 73.168-73.168 40.136 0 73.168 32.677 73.168 73.168 0 40.136-32.677 73.168-73.168 73.168-11.721 0-22.732-2.841-32.322-7.459l51.502-47.595c9.59-9.59 10.3-25.218 1.066-34.808zM336.716 602.757c-0.355-0.355-0.71-0.355-1.066-0.71 0.71 0.355 0.71 0.71 1.066 0.71z" />
<glyph unicode="&#xe94c;" glyph-name="sfdc-icon-product-industries-manufacturing" horiz-adv-x="1023" d="M702.557 730.269c-49.371 0-89.862-40.136-89.862-89.862s40.136-89.862 89.862-89.862c49.371 0 89.862 40.136 89.862 89.862s-40.491 89.862-89.862 89.862zM702.557 604.533c-19.89 0-35.874 15.983-35.874 35.874s15.983 35.874 35.874 35.874c19.89 0 35.874-15.983 35.874-35.874 0-19.535-15.983-35.874-35.874-35.874zM511.467 961.85c-282.373 0-511.467-228.74-511.467-511.467s229.095-511.467 511.467-511.467c282.373 0 511.467 229.095 511.467 511.467s-229.095 511.467-511.467 511.467zM518.216 553.741c2.486-0.71 3.552-3.552 2.841-6.038l-13.497-34.808c-1.066-2.131-3.552-3.552-5.683-2.841-11.366 3.907-23.087 6.038-35.163 6.393-58.961 1.421-110.463-42.977-116.856-101.938-8.169-73.523 53.633-135.326 127.156-127.156 58.606 6.393 103.004 57.54 101.938 116.856-0.355 12.076-2.486 23.797-6.393 35.163-0.71 2.486 0.355 4.973 2.841 5.683l34.808 13.497c2.486 1.066 5.328-0.355 6.038-2.841 6.393-17.404 9.235-35.519 9.235-54.343 0-89.152-72.458-161.254-161.254-161.254-92.703 0-167.292 78.496-160.899 172.62 5.683 84.179 76.72 150.243 160.899 150.243 18.47 0.355 36.584-2.841 53.988-9.235zM499.746 401.722c0-19.89-15.983-35.874-35.874-35.874s-35.874 15.983-35.874 35.874c0 19.89 15.983 35.874 35.874 35.874s35.874-15.983 35.874-35.874zM770.753 376.149c0-2.486-2.131-4.617-4.617-4.617h-36.939c-2.486 0-4.262-1.776-4.617-4.262-2.841-25.218-9.59-49.726-19.535-72.458-1.066-2.131 0-4.617 1.776-6.038l36.939-21.311c2.131-1.421 2.841-4.262 1.776-6.393l-18.47-32.322c-1.421-2.131-4.262-2.841-6.393-1.776l-36.939 21.311c-2.131 1.066-4.617 0.71-6.038-1.421-16.339-22.377-35.874-42.267-58.25-58.961-1.776-1.421-2.486-3.907-1.421-6.038l20.956-36.229c1.421-2.131 0.355-4.973-1.776-6.393l-32.322-18.47c-2.131-1.421-4.973-0.355-6.393 1.776l-20.601 35.874c-1.066 2.131-3.907 2.841-6.038 1.776-25.218-11.721-52.212-19.535-80.272-22.377-2.486-0.355-4.262-2.131-4.262-4.617v-40.491c0-2.486-2.131-4.617-4.617-4.617h-37.294c-2.486 0-4.617 2.131-4.617 4.617v40.136c0 2.486-1.776 4.262-4.262 4.617-28.060 2.841-55.409 10.3-80.982 22.022-2.131 1.066-4.617 0.355-6.038-1.776l-20.246-35.163c-1.421-2.131-4.262-2.841-6.393-1.776l-32.322 18.47c-2.131 1.421-2.841 4.262-1.776 6.393l20.601 35.874c1.066 2.131 0.71 4.617-1.421 6.038-11.011 8.169-21.311 17.049-30.901 26.994-9.945 10.3-19.18 20.956-27.349 32.322-1.421 1.776-3.907 2.486-6.038 1.421l-36.229-20.956c-2.131-1.421-4.973-0.355-6.393 1.776l-18.47 32.322c-1.421 2.131-0.355 4.973 1.776 6.393l36.584 20.956c2.131 1.066 2.841 3.907 1.776 6.038-11.011 25.218-18.47 52.212-20.956 79.917-0.355 2.486-2.131 4.262-4.617 4.262h-42.622c-2.486 0-4.617 2.131-4.617 4.617v37.294c0 2.486 2.131 4.617 4.617 4.617h42.622c2.486 0 4.262 1.776 4.617 4.262 2.841 27.704 10.3 54.699 21.311 79.562 1.066 2.131 0.355 4.617-1.776 6.038l-36.939 21.311c-2.131 1.421-2.841 4.262-1.776 6.393l18.47 32.322c1.421 2.131 4.262 2.841 6.393 1.776l37.294-21.666c2.131-1.066 4.617-0.71 6.038 1.421 7.459 10.3 15.983 20.246 25.218 29.48 10.3 10.3 21.666 19.89 33.387 28.415 2.131 1.421 2.486 3.907 1.421 6.038l-22.022 38.005c-1.421 2.131-0.355 4.973 1.776 6.393l32.322 18.47c2.131 1.421 4.973 0.355 6.393-1.776l22.377-39.070c1.066-2.131 3.552-2.841 6.038-1.776 26.639 11.366 55.054 18.47 84.889 20.601v46.884c0 2.486 2.131 4.617 4.617 4.617h37.294c2.486 0 4.617-2.131 4.617-4.617v-88.441c0-2.486-2.131-4.617-4.617-4.617h-22.732c-58.25 0-111.528-22.377-151.664-62.513-40.136-40.491-62.513-94.479-62.513-152.019 0-57.895 22.377-112.239 63.578-153.795s95.545-64.644 152.73-64.644c117.211 0 216.308 97.321 216.308 212.046v18.47c0 2.486 2.131 4.617 4.617 4.617h81.337c2.486 0 4.617-2.131 4.617-4.617v-36.939zM873.046 615.544c0-2.486-2.131-4.617-4.617-4.617h-29.125c-2.131 0-3.907-1.421-4.617-3.552-3.907-15.273-10.3-29.48-18.825-42.267-1.066-1.776-1.066-4.262 0.71-6.038l23.442-23.442c1.776-1.776 1.776-4.617 0-6.749l-26.284-26.284c-1.776-1.776-4.617-1.776-6.749 0l-23.442 23.442c-1.421 1.421-3.907 1.776-6.038 0.71-16.694-11.011-35.874-18.47-56.475-21.311-2.486-0.355-3.907-2.131-3.907-4.617v-36.229c0-2.486-2.131-4.617-4.617-4.617h-37.294c-2.486 0-4.617 2.131-4.617 4.617v39.781c0 2.131-1.421 3.907-3.552 4.617-14.207 3.907-27.704 9.945-39.781 18.114-1.776 1.066-4.262 1.066-6.038-0.71l-23.442-23.442c-1.776-1.776-4.617-1.776-6.749 0l-26.284 26.284c-1.776 1.776-1.776 4.617 0 6.749l23.442 23.442c1.421 1.421 1.776 3.907 0.71 6.038-8.524 12.787-14.918 26.994-18.825 42.267-0.355 2.131-2.486 3.552-4.617 3.552h-41.557c-2.486 0-4.617 2.131-4.617 4.617v36.939c0 2.486 2.131 4.617 4.617 4.617h39.070c2.486 0 4.262 1.776 4.617 3.907 3.197 19.89 10.3 38.36 20.956 54.343 1.066 1.776 1.066 4.262-0.71 6.038l-23.442 23.442c-1.776 1.776-1.776 4.617 0 6.749l26.284 26.284c1.776 1.776 4.617 1.776 6.749 0l23.442-23.442c1.421-1.421 3.907-1.776 6.038-0.71 12.076 8.169 25.573 14.207 39.781 18.114 2.131 0.71 3.552 2.486 3.552 4.617v31.967c0 2.486 2.131 4.617 4.617 4.617h37.294c2.486 0 4.617-2.131 4.617-4.617v-28.415c0-2.486 1.776-4.262 3.907-4.617 20.601-2.841 39.781-10.3 56.475-21.311 1.776-1.066 4.262-1.066 6.038 0.71l23.442 23.442c1.776 1.776 4.617 1.776 6.749 0l26.284-26.284c1.776-1.776 1.776-4.617 0-6.749l-23.442-23.442c-1.421-1.421-1.776-3.907-0.71-6.038 10.656-15.983 18.114-34.453 20.956-54.343 0.355-2.131 2.131-3.907 4.617-3.907h26.284c2.486 0 4.617-2.131 4.617-4.617v-37.65z" />
<glyph unicode="&#xe94d;" glyph-name="sfdc-icon-product-industries-retail" horiz-adv-x="1023" d="M687.994 554.807h-424.092c-2.131 0-3.907-2.131-3.552-4.262l37.294-209.559c0.355-1.776 1.776-2.841 3.552-2.841h312.918c1.421 0 2.841 1.066 3.197 2.486l73.879 209.559c0.71 2.486-0.71 4.617-3.197 4.617zM405.977 129.295c20.246 0 36.584 16.339 36.584 36.584s-16.339 36.584-36.584 36.584c-20.246 0-36.584-16.339-36.584-36.584-0.355-20.246 16.339-36.584 36.584-36.584zM619.444 129.295c20.246 0 36.584 16.339 36.584 36.584s-16.339 36.584-36.584 36.584c-20.246 0-36.584-16.339-36.584-36.584s16.339-36.584 36.584-36.584zM842.855 554.807h-101.228c-1.421 0-2.841-1.066-3.197-2.486l-73.879-209.559c-0.71-2.131 0.71-4.617 3.197-4.617h101.228c1.421 0 2.841 1.066 3.197 2.486l73.879 209.559c1.066 2.486-0.71 4.617-3.197 4.617zM511.467 960.074c-282.373 0-511.467-229.095-511.467-511.467s229.095-511.467 511.467-511.467c282.373 0 511.467 229.095 511.467 511.467s-229.095 511.467-511.467 511.467zM803.43 296.942c-0.355-1.421-1.776-2.486-3.197-2.486h-490.156c-2.131 0-3.907-2.131-3.552-4.262l7.459-41.557c0.355-1.776 1.776-2.841 3.552-2.841h423.026c1.776 0 3.552-1.421 3.552-3.552v-36.229c0-1.776-1.421-3.552-3.552-3.552h-44.398c-2.486 0-4.262-2.486-3.197-4.973 4.262-9.59 6.393-20.601 6.393-31.612 0-46.174-39.070-83.469-85.955-80.272-38.715 2.486-70.327 33.032-74.234 71.747-1.421 14.563 0.71 28.060 6.038 40.136 1.066 2.486-0.71 4.973-3.197 4.973h-59.671c-2.486 0-4.262-2.486-3.197-4.973 4.262-9.59 6.393-20.601 6.393-31.612 0-46.174-39.070-83.469-85.955-80.272-38.715 2.486-70.327 33.032-74.234 71.747-1.421 14.563 0.71 28.060 6.038 40.136 1.066 2.486-0.71 4.973-3.197 4.973h-47.24c-1.776 0-3.197 1.066-3.552 2.841l-15.628 89.507-53.988 304.039-10.3 57.185c-0.355 1.776-1.776 2.841-3.552 2.841h-51.502c-1.776 0-3.552 1.421-3.552 3.552v36.584c0 1.776 1.421 3.552 3.552 3.552h296.935c1.776 0 3.197-1.066 3.552-2.841l12.076-70.682c0.355-2.131-1.421-3.907-3.552-3.907h-37.294c-1.776 0-3.197 1.066-3.552 2.841l-4.973 28.415c-0.355 1.776-1.776 2.841-3.552 2.841h-156.637c-2.131 0-3.907-2.131-3.552-4.262l9.59-53.278c0.355-1.776 1.776-2.841 3.552-2.841h649.634c2.486 0 4.262-2.486 3.197-4.617l-104.425-297.29z" />
<glyph unicode="&#xe94e;" glyph-name="sfdc-icon-product-industries-fin-serv" horiz-adv-x="1023" d="M541.303 505.081c-30.191 0-54.699-24.508-54.699-54.699s24.508-54.699 54.699-54.699c30.191 0 54.699 24.508 54.699 54.699s-24.508 54.699-54.699 54.699zM706.109 710.023l-431.906 0.71c-21.666 0-21.666-21.666-21.666-21.666l-0.71-476.304c0-23.442 21.666-21.666 21.666-21.666h432.616c0 0 21.666-2.131 21.666 21.666s0 475.949 0 475.949c0 20.601-21.666 21.311-21.666 21.311zM352.699 424.809v-42.622c0-2.486-2.131-4.617-4.617-4.617h-37.294c-2.486 0-4.617 2.131-4.617 4.617v42.622c-7.104 6.393-11.721 15.628-11.721 25.929 0 19.18 15.628 34.808 34.808 34.808s34.808-15.628 34.808-34.808c0.355-10.3-4.262-19.535-11.366-25.929zM680.891 431.558c0-2.486-2.131-4.617-4.617-4.617h-33.032c-2.131 0-3.907-1.421-4.617-3.552-2.131-8.169-5.683-15.983-9.59-23.087-1.066-1.776-0.71-4.262 0.71-5.683l23.442-23.442c1.776-1.776 1.776-4.617 0-6.749l-26.284-26.284c-1.776-1.776-4.617-1.776-6.749 0l-23.442 23.442c-1.421 1.421-3.907 1.776-5.683 0.71-7.104-4.262-14.918-7.459-23.087-9.59-2.131-0.71-3.552-2.486-3.552-4.617v-33.032c0-2.486-2.131-4.617-4.617-4.617h-37.294c-2.486 0-4.617 2.131-4.617 4.617v33.032c0 2.131-1.421 3.907-3.552 4.617-8.169 2.131-15.983 5.683-23.087 9.59-1.776 1.066-4.262 0.71-5.683-0.71l-23.442-23.442c-1.776-1.776-4.617-1.776-6.749 0l-26.284 26.284c-1.776 1.776-1.776 4.617 0 6.749l23.442 23.442c1.421 1.421 1.776 3.907 0.71 5.683-4.262 7.104-7.459 14.918-9.59 23.087-0.71 2.131-2.486 3.552-4.617 3.552h-33.032c-2.486 0-4.617 2.131-4.617 4.617v37.294c0 2.486 2.131 4.617 4.617 4.617h33.032c2.131 0 3.907 1.421 4.617 3.552 2.131 8.169 5.683 15.983 9.59 23.087 1.066 1.776 0.71 4.262-0.71 5.683l-23.442 23.442c-1.776 1.776-1.776 4.617 0 6.749l26.284 26.284c1.776 1.776 4.617 1.776 6.749 0l23.442-23.442c1.421-1.421 3.907-1.776 5.683-0.71 7.104 4.262 14.918 7.459 23.087 9.59 2.131 0.71 3.552 2.486 3.552 4.617v32.677c0 2.486 2.131 4.617 4.617 4.617h37.294c2.486 0 4.617-2.131 4.617-4.617v-32.677c0-2.131 1.421-3.907 3.552-4.617 8.169-2.131 15.983-5.683 23.087-9.59 1.776-1.066 4.262-0.71 5.683 0.71l23.442 23.442c1.776 1.776 4.617 1.776 6.749 0l26.284-26.284c1.776-1.776 1.776-4.617 0-6.749l-23.442-23.442c-1.421-1.421-1.776-3.907-0.71-5.683 4.262-7.104 7.459-14.918 9.59-23.087 0.71-2.131 2.486-3.552 4.617-3.552h33.032c2.486 0 4.617-2.131 4.617-4.617v-37.294zM511.467 961.85c-282.373 0-511.467-228.74-511.467-511.112s229.095-511.467 511.467-511.467c282.373 0 511.467 229.095 511.467 511.467s-229.095 511.112-511.467 511.112zM814.441 541.665c0-2.486-1.776-4.262-4.262-4.262h-34.453c-2.486 0-4.617-2.131-4.617-4.617v-164.096c0-2.486 2.131-4.617 4.617-4.617h34.453c2.486 0 4.262-1.776 4.262-4.262v-77.43c0-2.486-1.776-4.262-4.262-4.262h-34.453c-2.486 0-4.617-2.131-4.617-4.617v-60.737c0-64.999-64.999-64.999-64.999-64.999h-435.458c-62.513 0-61.802 64.999-61.802 64.999v475.949c-0.355 64.999 64.644 64.644 64.644 64.644h432.616c0 0 64.999 0.355 64.999-64.999v-60.382c0-2.486 2.131-4.617 4.617-4.617h34.453c2.486 0 4.262-1.776 4.262-4.262v-77.43z" />
<glyph unicode="&#xe94f;" glyph-name="sfdc-icon-product-industries-health" horiz-adv-x="1023" d="M652.121 686.936c-38.715 0-77.43-14.918-107.266-44.398l-29.125-29.125c-1.776-1.776-4.973-1.776-6.749 0l-31.256 29.125c-29.48 29.48-68.196 44.398-107.266 44.398-38.715 0-77.43-14.918-107.266-44.398-58.25-58.25-58.961-151.664-3.197-210.98 1.066-1.066 2.131-1.421 3.552-1.421h79.206c1.776 0 3.552 1.066 4.262 2.841l36.939 77.075c3.907 8.524 12.431 13.852 22.022 13.852v0c9.235 0 18.114-5.328 22.022-13.852l18.825-40.491c1.066-2.131 3.907-1.776 4.617 0.355l30.546 95.19c3.197 10.656 13.497 17.404 24.508 17.049 11.011-0.71 20.246-8.524 22.732-19.18l34.098-161.965c0.355-2.486 3.907-2.486 4.617-0.355l27.349 73.523c3.552 9.235 12.431 15.628 22.377 15.983 9.945 0 19.18-5.683 23.087-15.273l18.47-45.109c0.71-1.776 2.486-3.197 4.617-3.197h91.283c1.421 0 2.486 0.355 3.552 1.421l0.355 0.71c59.316 59.316 59.316 155.216 0 214.177-29.48 29.125-68.196 44.043-106.911 44.043zM703.267 377.569h-58.606c-9.945 0-18.825 6.038-22.377 15.273-0.71 2.131-3.552 1.776-4.262 0l-35.874-95.9c-3.552-9.59-12.787-15.983-22.732-15.983-0.71 0-1.066 0-1.776 0-10.656 0.71-19.89 8.524-22.022 19.18l-32.322 153.44c-0.355 2.486-3.907 2.486-4.617 0.355l-20.246-63.578c-2.486-8.169-9.235-14.918-17.759-17.049-11.366-2.841-23.087 3.197-27.704 13.497l-23.797 50.792c-0.71 1.776-3.552 1.776-4.262 0l-20.246-42.622c-3.907-8.524-12.431-13.852-22.022-13.852h-46.174c-2.131 0-3.197-2.486-1.776-4.262l194.287-194.287c1.776-1.776 4.973-1.776 6.749 0l188.959 190.735c1.776 1.776 0.71 4.262-1.421 4.262zM511.467 961.85c-282.373 0-511.467-228.74-511.467-511.112s229.095-511.467 511.467-511.467c282.373 0 511.467 229.095 511.467 511.467s-229.095 511.112-511.467 511.112zM793.84 393.908l-277.755-279.886c-1.776-1.776-4.973-1.776-6.749 0l-31.256 31.256-247.209 246.854c-38.005 38.005-60.382 89.507-60.382 143.495 0 58.606 25.218 113.304 69.972 152.019 33.387 28.77 74.944 45.464 118.987 47.595 55.764 2.841 108.687-16.339 148.468-54.343 1.776-1.776 4.973-1.776 6.749 0 37.294 35.163 85.955 54.343 137.457 54.343 57.185 0 110.463-23.797 149.178-66.42 30.546-33.743 48.305-77.43 50.792-122.894 2.841-57.185-18.114-111.528-58.25-152.019z" />
<glyph unicode="&#xe950;" glyph-name="sfdc-icon-phone" horiz-adv-x="1023" d="M992.744 197.135l-129.643 104.425c-29.836 23.442-72.458 25.573-101.938 2.131l-110.463-80.982c-12.787-10.656-31.967-8.524-44.753 4.262l-165.872 149.533-148.823 166.227c-12.787 12.787-12.787 29.836-4.262 44.753l80.627 110.818c23.442 29.836 21.311 72.458-2.131 102.293l-104.069 130.708c-31.967 38.36-89.152 42.622-125.381 6.393l-110.463-111.173c-16.694-17.049-25.929-40.136-25.573-63.933 10.656-217.729 108.332-424.802 252.892-569.718 144.561-145.271 350.568-243.302 567.587-253.958 23.442-2.131 46.884 8.524 63.578 25.573l110.463 111.173c33.032 25.929 39.070 73.879 13.142 106.911-4.262 5.328-9.235 10.3-14.918 14.563z" />
<glyph unicode="&#xe951;" glyph-name="sfdc-icon-headset" horiz-adv-x="1023" d="M938.4 186.835c28.415 19.89 45.109 52.212 45.109 86.665v170.489c1.066 45.464-27.704 85.955-71.037 99.807v18.114c0 220.925-179.724 400.649-400.294 400.649s-400.649-179.724-400.649-400.294v-18.47c-42.977-14.207-72.103-54.343-72.103-99.807v-170.489c0-57.895 47.24-105.135 105.135-105.135h90.217c15.273 0 28.060 12.431 28.060 28.060v324.64c0 15.273-12.431 28.060-28.060 28.060v0h-24.508v6.038c0 163.741 127.156 302.973 290.897 309.011 166.582 6.038 306.88-123.96 312.918-290.542 0-3.552 0.355-7.459 0.355-11.011v-13.142h-24.508c-15.273 0-28.060-12.431-28.060-28.060v0-324.64c0-15.273 12.431-28.060 28.060-28.060h46.884c-12.431-46.529-54.343-78.851-102.293-78.851h-74.944c-12.431 59.316-66.42 101.228-127.156 98.386-59.316-2.841-108.332-46.529-118.277-105.135-12.076-76.72 48.66-144.205 123.249-144.205 40.491 0 78.496 19.535 101.938 52.567h94.835c99.452-0.71 184.696 71.747 200.325 169.779-0.355-0.355 3.907 25.573 3.907 25.573z" />
<glyph unicode="&#xe952;" glyph-name="sfdc-icon-chat" horiz-adv-x="1023" d="M511.112 915.676c-283.793 0-509.691-206.718-509.691-462.096 0-80.272 23.442-155.926 61.802-223.412 6.749-10.656 8.524-23.797 4.262-35.874l-66.065-179.014c-6.393-17.049 10.656-31.612 27.704-27.349l183.276 69.616c10.656 4.262 23.442 2.131 36.229-4.262 81.693-44.398 173.331-67.84 266.389-67.485 279.531 2.131 507.56 206.718 507.56 463.872-1.776 259.285-229.805 466.003-511.467 466.003v0zM253.602 357.679c-51.147 0-93.059 41.912-93.059 93.059s41.912 93.059 93.059 93.059 93.059-41.912 93.059-93.059c0-51.502-41.912-93.059-93.059-93.059zM532.423 357.679c-51.147 0-93.059 41.912-93.059 93.059s41.912 93.059 93.059 93.059 93.059-41.912 93.059-93.059c0-51.502-41.912-93.059-93.059-93.059zM811.599 357.679c-51.147 0-93.059 41.912-93.059 93.059s41.912 93.059 93.059 93.059c51.147 0 93.059-41.912 93.059-93.059 0-51.502-41.912-93.059-93.059-93.059z" />
</font>
</defs>
</svg>
